<?xml version="1.0" encoding="utf-8"?>
<!-- Generator: Adobe Illustrator 16.0.4, SVG Export Plug-In . SVG Version: 6.00 Build 0)  -->
<!DOCTYPE svg PUBLIC "-//W3C//DTD SVG 1.1//EN" "http://www.w3.org/Graphics/SVG/1.1/DTD/svg11.dtd">
<svg version="1.1" id="Layer_1" xmlns="http://www.w3.org/2000/svg" xmlns:xlink="http://www.w3.org/1999/xlink" x="0px" y="0px"
	 width="100%" height="100%" viewBox="0 -200 510 600" enable-background="new 0 -200 510 600" xml:space="preserve">
<path fill="#E7E7E7" d="M510-107.5l-0.002-41.727c0-27.902-22.798-50.704-50.716-50.704H352.199
	c-4.635,15.758-13.168,30.593-25.563,42.983c-39.589,39.592-103.72,39.627-143.312,0.039c-12.426-12.43-20.962-27.266-25.565-43.058
	L50.709-200c-27.9,0-50.708,22.796-50.708,50.705v41.795H0v415h0l0.001,41.727c0,27.902,22.798,50.705,50.716,50.705H157.8
	c4.635-15.759,13.169-30.594,25.564-42.983c39.588-39.593,103.72-39.628,143.313-0.039c12.427,12.43,20.962,27.266,25.564,43.058
	L459.291,400c27.901,0,50.708-22.796,50.708-50.705V307.5H510V-107.5L510-107.5z"/>
</svg>
