<?xml version="1.0" encoding="utf-8"?>
<!-- Generator: Adobe Illustrator 16.0.4, SVG Export Plug-In . SVG Version: 6.00 Build 0)  -->
<!DOCTYPE svg PUBLIC "-//W3C//DTD SVG 1.1//EN" "http://www.w3.org/Graphics/SVG/1.1/DTD/svg11.dtd">
<svg version="1.1" id="Layer_1" xmlns="http://www.w3.org/2000/svg" xmlns:xlink="http://www.w3.org/1999/xlink" x="0px" y="0px"
	 width="100%" height="100%" viewBox="437.008 321.452 350 145.683" enable-background="new 437.008 321.452 350 145.683"
	 xml:space="preserve">
<g>
	<g>
		<g>
			<g id="XMLID_1_">
				<g>
					<polygon fill="#6D2B90" points="772.036,407.217 787.009,433.886 772.171,433.886 763.137,415.204 754.177,433.886 
						740.072,433.886 755.18,407.217 741.688,383.151 756.182,383.151 764.004,399.873 772.036,383.151 785.677,383.151 					"/>
					<polygon fill="#6D2B90" points="785.692,439.017 785.692,444.371 777.301,444.371 735.166,444.371 682.861,444.371 
						643.18,444.371 591.158,444.371 546.122,444.371 499.544,444.371 451.397,444.371 437.038,444.371 437.038,439.017 					"/>
					<path d="M780.846,448.215l-0.284,2.438c-0.927-0.404-1.975-0.644-3.006-0.644c-1.018,0-2.334,0.449-2.334,2.064
						c0,2.572,6.492,1.48,6.492,6.446c0,3.246-2.573,4.473-5.564,4.473c-1.615,0-2.333-0.21-3.799-0.569l0.284-2.677
						c1.017,0.554,2.184,0.912,3.35,0.912c1.122,0,2.633-0.568,2.633-1.899c0-2.827-6.491-1.66-6.491-6.566
						c0-3.306,2.558-4.517,5.175-4.517C778.572,447.677,779.754,447.855,780.846,448.215z"/>
					<polygon fill="#6D2B90" points="739.773,424.298 739.773,433.886 706.149,433.886 706.149,383.151 712.671,383.151 
						739.04,383.151 739.04,392.738 718.579,392.738 718.579,403.209 737.903,403.209 737.903,412.812 718.579,412.812 
						718.579,424.298 					"/>
					<polygon points="735.211,460.405 735.211,462.738 726.416,462.738 726.416,447.931 735.166,447.931 735.166,450.264 
						729.393,450.264 729.393,453.914 734.673,453.914 734.673,456.247 729.393,456.247 729.393,460.405 					"/>
					<path fill="#FFFFFF" d="M647.158,349.676c-0.165-0.03-0.345-0.045-0.539-0.045H646.5c-2.169,0.075-9.139,5.116-10.844,6.596
						c0.164-1.794,0.448-2.767,0.688-3.575c0.254-0.853,0.449-1.525,0.404-2.767c-0.09-2.603-1.377-3.47-3.007-4.562
						c-1.182-0.808-2.527-1.72-3.814-3.515l-0.015-0.03l-0.015-0.015c-0.03-0.015-0.419-0.284-0.883-0.284
						c-0.314,0-0.599,0.12-0.822,0.359c-0.688,0.733,0.015,2.094,0.045,2.154c1.196,1.331,2.378,2.034,3.35,2.603
						c1.451,0.853,2.424,1.421,2.498,3.38c0,0.149,0,0.284,0,0.404c0,0.239,0,0.479-0.015,0.718
						c-0.06,0.778-0.194,1.556-0.404,2.304c-0.045,0.179-0.104,0.359-0.164,0.553c-0.045,0.12-0.09,0.254-0.12,0.359
						c-0.089,0.254-0.179,0.494-0.299,0.733c-0.374,0.897-0.867,1.81-1.511,2.782c-0.074,0.12-0.164,0.239-0.254,0.359
						c-0.18,0.27-0.359,0.523-0.554,0.778s-0.389,0.494-0.599,0.748c-0.074,0.104-0.179,0.224-0.299,0.359
						c-0.194,0.239-0.403,0.479-0.613,0.718c-0.284,0.314-0.554,0.613-0.838,0.913c-0.045,0.045-0.074,0.075-0.119,0.12
						l-0.075,0.075c-1.182,1.242-2.468,2.423-3.455,3.321c-0.313,0.299-0.643,0.583-0.972,0.882
						c-0.165,0.149-0.329,0.299-0.494,0.449l-0.269,0.224l-0.239,0.225c-0.165,0.165-0.345,0.314-0.509,0.463l-0.344,0.314
						c-0.958,0.853-1.855,1.645-2.708,2.483l-0.06,0.06c-1.406,1.331-2.453,2.468-3.306,3.545l-0.104,0.12l0.104,0.105
						c0.045,0.06,0.104,0.12,0.149,0.179l0.12,0.135c0.27,0.299,0.583,0.613,1.047,0.613c0.06,0,0.104,0,0.164-0.015
						c1.541-0.269,3.695-1.765,6.402-4.442c0.269-0.254,0.538-0.523,0.793-0.792c0.702-0.733,1.391-1.496,2.034-2.199
						c0.688-0.778,1.421-1.63,2.139-2.513c0.074-0.09,0.164-0.18,0.239-0.27l0.074-0.09c0.12-0.149,0.239-0.299,0.359-0.449
						l0.09-0.104c0.03-0.06,0.074-0.09,0.104-0.135c0.075-0.09,0.149-0.179,0.225-0.269l0.135-0.18
						c0.119-0.134,0.224-0.269,0.313-0.389c0.09-0.105,0.165-0.194,0.239-0.284l0.03-0.045l0.149-0.18l0.135-0.165l0.045-0.06
						c0.03-0.015,0.045-0.045,0.06-0.06c0.3-0.344,2.707-2.393,5.55-4.606c4.801-3.74,8.301-5.908,9.603-5.968h0.09
						c0.015,0,0.044,0,0.06,0l-13.163,18.532l-0.508,0.718l-0.045,0.045v0.06c0,0.06,0.015,0.239,0.09,0.449
						c0.074,0.179,0.179,0.344,0.329,0.463l0.045,0.06l0.074-0.015h0.284l0.599-0.03h0.074h0.016l0.045-0.06l0.045-0.045v-0.015
						c0.029-0.03,0.045-0.06,0.074-0.105l0.104-0.134c0.284-0.389,0.584-0.793,0.883-1.182l0.225-0.284
						c0.27-0.329,0.523-0.644,0.808-0.972c3.036-3.665,6.79-7.209,10.38-10.5l1.361-1.257c0.344-0.329,0.688-0.643,1.032-0.957
						l0.119-0.12c1.481-1.346,2.827-2.588,4.099-3.784c-3.156,3.261-10.081,11.727-9.961,15.57c0.06,1.242,0.702,1.915,1.81,1.915
						c0.045,0,0.074,0,0.119,0c1.541-0.045,2.753-1.211,3.904-2.318c0.703-0.688,1.376-1.331,2.063-1.675
						c-0.224,1.167-0.389,2.528-0.373,3.111c0,0.09,0.015,0.165,0.029,0.239c0,0.104,0.016,0.194,0.03,0.269
						c0.029,0.209,0.104,0.419,0.209,0.613c0.016,0.045,0.045,0.105,0.075,0.15l0.06,0.075c0.404,0.539,1.092,0.808,2.094,0.808
						c0.061,0,0.135,0,0.21,0c0.673-0.03,1.615-0.299,2.812-0.793l0.045-0.015c3.949-1.646,9.647-5.37,10.275-5.789
						c0.045-0.015,0.061-0.03,0.09-0.06c0.03-0.015,0.061-0.03,0.09-0.06c0.18-0.135,0.314-0.209,0.404-0.254
						c-0.09,0.15-0.239,0.389-0.404,0.599l-0.029,0.03v0.03c-0.868,2.408-0.838,2.782-0.793,3.291c0,0.06,0.015,0.135,0.015,0.209
						c0,0.314,0.045,0.613,0.12,0.913c0.029,0.12,0.074,0.239,0.119,0.359c0,0.03,0.016,0.075,0.03,0.12
						c0.045,0.09,0.074,0.18,0.119,0.269l0.016,0.045l0.045,0.06c0,0.045,0.045,0.104,0.074,0.149l0.045,0.09
						c0.404,0.643,1.002,1.182,1.75,1.525c0.688,0.314,1.466,0.494,2.289,0.494c0.074,0,0.149-0.015,0.224-0.015
						c1.227-0.045,2.797-0.599,4.787-1.706c0.194-0.104,0.389-0.209,0.583-0.329l0.09-0.045c0.074-0.045,0.164-0.09,0.254-0.15
						l0.225-0.134c0.209-0.12,0.419-0.254,0.658-0.404c0.164-0.105,0.329-0.209,0.509-0.329c0.164-0.105,0.313-0.209,0.493-0.314
						c0.06-0.045,0.12-0.075,0.164-0.12c0.061-0.03,0.12-0.075,0.18-0.12c0.045-0.015,0.104-0.06,0.165-0.104
						c0.329-0.209,0.643-0.434,0.972-0.658c0.778-0.539,1.511-1.077,2.199-1.57c0.927-0.658,1.734-1.242,2.393-1.675l-0.269,0.643
						c-0.284,0.658-0.494,1.211-0.674,1.735c-0.104,0.299-0.209,0.583-0.284,0.853c-0.164,0.449-0.299,0.928-0.448,1.481
						c-0.03,0.12-0.06,0.254-0.09,0.389l-0.015,0.075c-0.016,0.045-0.03,0.089-0.03,0.134c-0.015,0.045-0.03,0.09-0.03,0.135
						c-0.074,0.329-0.134,0.673-0.194,1.062c-0.09,0.643-0.119,1.211-0.104,1.705c0.03,0.419,0.12,0.808,0.314,1.137
						c0.493,0.913,1.63,1.391,3.38,1.391c0.12,0,0.239,0,0.359-0.015c1.391-0.045,4.891-1.989,6.581-2.932
						c0.284-0.149,0.523-0.299,0.673-0.374c1.018,1.646,2.259,2.408,3.889,2.408c0.061,0,0.12,0,0.18-0.015
						c2.154-0.075,4.278-0.958,6.268-1.9c0.358-0.165,0.703-0.329,1.047-0.508c1.556-0.748,3.021-1.451,4.353-1.75v-0.015h0.015
						c0.045-0.015,0.061-0.015,0.09-0.015c0.104-0.03,0.239-0.045,0.374-0.075v0.015l0.09-0.015c0.164-0.03,0.344-0.044,0.509-0.06
						c0.119,0,0.224,0,0.284,0c0.06,0,0.104-0.015,0.135-0.015v0.015c-0.644,1.107-1.586,3.006-1.811,3.904
						c-0.045,0.149-0.06,0.269-0.06,0.374c0.06,1.78,1.376,2.887,3.425,2.887c0.061,0,0.135,0,0.21,0
						c0.688-0.03,2.153-0.449,2.752-0.958c0.554-0.479,0.329-1.151,0.12-1.451l-0.03-0.06l-0.075-0.015
						c-0.074,0-0.119-0.015-0.179-0.06l-0.03-0.03c-0.045-0.03-0.09-0.06-0.12-0.09c-0.149-0.12-0.389-0.329-0.808-0.329
						c-0.015,0-0.029,0-0.045,0c-0.119,0-0.224,0.03-0.313,0.045l-0.045,0.015c-0.239,0.06-0.464,0.165-0.673,0.254
						c-0.27,0.12-0.509,0.224-0.778,0.254c-0.209,0.03-0.403,0.045-0.568,0.045c-0.329,0-0.554-0.06-0.628-0.179
						c-0.075-0.105-0.045-0.254,0-0.359c0.06-0.15,0.149-0.285,0.149-0.285c0.015,0,0.03-0.03,0.06-0.06l0.045-0.06
						c0.449-0.523,1.122-1.645,1.586-2.647c0.119-0.239,0.239-0.479,0.313-0.703c0.061-0.165,0.12-0.329,0.15-0.464l0.015-0.03
						v-0.015c0.015-0.075,0.029-0.134,0.029-0.194c0.016-0.045,0.016-0.135,0.016-0.194c-0.06-1.69-0.853-2.034-2.124-2.034
						c-0.09,0-0.194,0-0.314,0c-2.049,0.075-4.756,1.151-7.358,2.258l-0.03,0.015h-0.03l-0.09,0.03v0.015l-0.612,0.254
						c-0.39,0.165-0.778,0.329-1.152,0.479c-0.987,0.419-2.139,0.882-3.126,1.167c-0.658,0.194-1.151,0.299-1.54,0.314
						c-0.016,0-0.016,0-0.016,0c-0.329,0-0.673-0.104-0.957-0.269c-0.209-0.135-0.359-0.284-0.434-0.419
						c-0.045-0.134-0.045-0.254,0.015-0.374c0-0.015,0.06-0.09,0.27-0.299c0.164-0.149,0.389-0.329,0.628-0.554l0.06-0.044
						l0.359-0.299c1.182-1.002,2.962-2.528,4.263-3.994c0.135-0.165,0.27-0.314,0.404-0.479c0.239-0.299,0.434-0.554,0.583-0.808
						c0.03-0.045,0.075-0.105,0.104-0.15l0.045-0.089l0.149-0.254c0.165-0.314,0.284-0.599,0.345-0.838
						c0-0.015,0.015-0.075,0.029-0.12c0.045-0.194,0.06-0.359,0.045-0.508c0.045-0.165,0.165-0.942-0.358-1.361
						c-0.404-0.314-0.748-0.389-1.227-0.389c-0.105,0-0.225,0-0.359,0.015c-0.225,0-0.389,0.015-0.554,0.045
						c-0.284,0.045-0.493,0.09-0.703,0.15c-0.089,0.03-0.194,0.06-0.299,0.104l-0.119,0.03c-0.18,0.075-0.345,0.15-0.568,0.27
						c-0.629,0.329-1.242,0.792-1.855,1.421c-0.419,0.404-0.837,0.882-1.256,1.421c-0.404,0.523-0.853,1.122-1.421,1.944
						l-0.225,0.314c-0.389,0.568-0.793,1.137-1.196,1.706l-0.105,0.134c-0.06,0.09-0.149,0.194-0.224,0.299
						c-0.284,0.374-0.568,0.733-0.838,1.047c-0.194,0.209-0.389,0.434-0.583,0.643l0.06,0.12l-0.09-0.089
						c-0.164,0.179-0.329,0.344-0.509,0.493l-0.06,0.075l-0.09,0.075c-0.119,0.104-0.239,0.209-0.374,0.314l-0.06,0.045l-0.09,0.075
						c-0.045,0.045-0.104,0.09-0.149,0.135c-0.09,0.075-0.194,0.135-0.284,0.194l-0.104,0.075l-0.105,0.075
						c-0.074,0.045-0.149,0.09-0.209,0.135c-0.104,0.06-0.194,0.12-0.284,0.165l-0.119,0.06l-0.105,0.06
						c-0.074,0.045-0.149,0.09-0.239,0.12c-0.135,0.06-0.269,0.12-0.403,0.165l-0.09,0.03c-0.045,0.015-0.075,0.03-0.12,0.045
						c-0.06,0.03-0.104,0.045-0.164,0.075c-0.554,0.18-1.152,0.27-1.735,0.299c-0.06,0-0.119,0-0.18,0
						c-0.463,0-0.718-0.104-0.853-0.733c-0.06-0.239-0.09-0.523-0.104-0.882c-0.015-0.494,0.015-1.002,0.09-1.496l0.015-0.209
						c0.03-0.12,0.045-0.239,0.061-0.359c0.045-0.209,0.089-0.418,0.149-0.628l0.045-0.18c0.015-0.104,0.045-0.194,0.074-0.299
						c0.104-0.344,0.21-0.658,0.314-0.928c0.09-0.269,0.194-0.523,0.314-0.792c0.149-0.344,0.313-0.718,0.538-1.152
						c0.209-0.418,0.419-0.792,0.644-1.167c0.104-0.194,0.239-0.404,0.358-0.583l0.314-0.508c0.403-0.613,0.822-1.227,1.301-1.87
						c0.149-0.195,0.284-0.389,0.449-0.583c0.358-0.479,0.732-0.927,1.166-1.466c0.255-0.299,0.509-0.613,0.778-0.913
						c0.239-0.284,0.509-0.583,0.763-0.867l0.27-0.314c0.119-0.134,0.239-0.254,0.358-0.389l0.18-0.194
						c0.853-0.927,1.735-1.84,2.797-2.917l0.194-0.194c0.12-0.12,0.239-0.254,0.374-0.374c0.12-0.134,0.239-0.254,0.374-0.374
						l0.21-0.209l0.074-0.075c0.748-0.733,1.48-1.451,2.199-2.169c0.209-0.194,0.403-0.374,0.598-0.568l0.539-0.523l0.149-0.15
						c0.732-0.703,1.466-1.406,2.153-2.079c0.15-0.165,0.314-0.314,0.464-0.464c0.165-0.149,0.314-0.314,0.464-0.464
						c1.556-1.541,3.306-3.335,4.577-4.966c0.045-0.06,0.074-0.104,0.119-0.149c0.045-0.06,0.09-0.12,0.12-0.165
						c0.074-0.09,0.135-0.18,0.194-0.254c0.104-0.149,0.194-0.284,0.284-0.404c0.074-0.134,0.18-0.269,0.254-0.389
						c0.061-0.105,0.12-0.209,0.18-0.314c0.075-0.12,0.149-0.254,0.225-0.389c0.074-0.12,0.135-0.254,0.194-0.374
						c0.314-0.688,0.464-1.301,0.448-1.825c-0.045-1.286-0.763-1.899-2.213-1.899c-0.075,0-0.15,0-0.225,0
						c-2.349,0.075-6.237,3.665-11.532,10.649c-3.934,5.19-7.464,10.754-7.912,11.592c-1.57,2.827-4.113,4.637-6.581,6.387
						c-1.152,0.823-2.229,1.585-3.201,2.453c-0.867,0.748-4.099,2.752-5.983,3.635c-0.074,0.045-0.134,0.075-0.194,0.09
						c-0.074,0.044-0.119,0.06-0.164,0.089h-0.03c-0.403,0.18-0.568,0.195-0.628,0.195c-0.194,0.015-0.389,0.015-0.568,0.015h-0.135
						l-0.06,0.18v-0.18c-0.793-0.015-1.302-0.075-1.676-0.209l-0.029-0.015h-0.03c-0.074-0.03-0.135-0.06-0.194-0.09
						c-0.075-0.06-0.149-0.105-0.209-0.165c-0.12-0.12-0.195-0.254-0.239-0.434c-0.359-1.301-0.195-2.528-0.195-2.543v-0.03v-0.015
						c-0.373-2.857,6.971-9.229,14.075-15.376c8.018-6.97,16.318-14.18,16.184-18.173c-0.029-0.778-0.927-2.289-2.498-2.289h-0.09
						c-7.867,0.269-24.365,24.545-25.353,26.31c-0.732,1.301-2.123,3.605-2.767,4.039c-0.867,0.613-11.951,7.942-14.523,8.032
						h-0.075c-0.06,0-0.104,0-0.135,0l0.853-3.635c1.287-2.632,3.216-4.816,5.908-6.641l0.016-0.03l0.029-0.03
						c0.149-0.225,0.329-0.763-0.06-1.152c-0.254-0.254-0.419-0.344-0.703-0.344c-0.06,0-0.149,0.015-0.239,0.015
						c-0.09,0.015-0.209,0.015-0.329,0.015c-0.763,0.03-3.529,2.244-7.673,5.639c-2.004,1.63-3.889,3.171-5.101,4.023l0.06-0.568
						c2.603-4.562,9.349-13.028,12.595-17.111c1.615-2.02,1.824-2.289,1.854-2.378c0.209-0.658,0.18-1.122-0.045-1.451
						c-0.194-0.284-0.554-0.434-1.047-0.449h-0.045h-0.03l-1.211,0.434c-1.392,0.733-6.282,5.19-9.857,8.436
						c-0.822,0.763-1.585,1.451-2.198,2.004c0.329-0.464,0.658-0.808,0.673-0.808c0.599-0.897,1.047-1.48,1.376-1.915
						c0.703-0.912,0.957-1.241,0.928-2.168C648.639,350.469,648.085,349.841,647.158,349.676z M642.566,354.852
						c-1.347,0.868-3.126,2.109-5.355,3.859c-2.781,2.169-5.115,4.173-5.399,4.473l-0.029,0.03l-0.016,0.03l-0.029,0.03l-0.12,0.15
						l-0.135,0.165l-0.06,0.075l-0.015,0.015c-0.061,0.075-0.12,0.15-0.18,0.225c-0.104,0.135-0.225,0.284-0.359,0.434l-0.119,0.15
						l-0.075,0.089l-0.149,0.195l-0.104,0.134l-0.12,0.135c-0.104,0.135-0.224,0.269-0.344,0.419l-0.06,0.075
						c-0.075,0.104-0.18,0.209-0.27,0.314c-0.703,0.868-1.436,1.72-2.153,2.528c-0.644,0.718-1.347,1.481-2.05,2.214
						c-0.269,0.299-0.554,0.583-0.822,0.837c-2.917,2.887-5.235,4.457-7.075,4.771c-0.119,0.015-0.225,0.03-0.344,0.03
						c-1.062,0-1.705-0.748-1.944-1.032l-0.165-0.179c-0.029-0.03-0.06-0.075-0.09-0.105l-0.104-0.104l-0.703-0.763l0.658-0.808
						l0.09-0.12c0.868-1.106,1.96-2.273,3.41-3.664l0.045-0.045l0.045-0.03v-0.015c0.883-0.853,1.81-1.675,2.707-2.483l0.359-0.329
						c0.165-0.135,0.329-0.284,0.493-0.434l0.255-0.224l0.27-0.254c0.149-0.134,0.313-0.269,0.493-0.434l0.135-0.12
						c0.27-0.254,0.554-0.494,0.822-0.748c0.883-0.808,2.199-2.019,3.426-3.291l0.09-0.09l0.074-0.075
						c0.239-0.269,0.479-0.523,0.718-0.792l0.09-0.09c0.194-0.225,0.389-0.449,0.584-0.688l0.015-0.03l0.029-0.015
						c0.09-0.105,0.15-0.18,0.21-0.254l0.015-0.03l0.03-0.03c0.194-0.24,0.374-0.479,0.583-0.733
						c0.165-0.225,0.329-0.449,0.494-0.688l0.029-0.044l0.016-0.03c0.074-0.09,0.134-0.179,0.209-0.284
						c0.599-0.912,1.062-1.765,1.421-2.632c0.09-0.194,0.165-0.389,0.239-0.583l0.015-0.03v-0.045
						c0.045-0.09,0.075-0.194,0.12-0.284c0.045-0.165,0.09-0.299,0.135-0.449l0.015-0.06c0.18-0.673,0.299-1.361,0.344-2.064
						c0.016-0.209,0.03-0.418,0.03-0.628c0-0.105,0-0.209-0.015-0.359c-0.045-1.301-0.509-1.585-1.899-2.394
						c-0.973-0.583-2.318-1.361-3.635-2.842l-0.09-0.12l-0.075-0.12c-0.254-0.479-0.434-1.047-0.479-1.615
						c-0.06-0.688,0.104-1.376,0.628-1.93c0.449-0.479,1.032-0.748,1.69-0.748c0.748,0,1.331,0.344,1.525,0.479l0.075,0.06
						l0.045,0.03l0.149,0.134l0.104,0.15c1.152,1.615,2.349,2.423,3.5,3.201c1.69,1.137,3.426,2.318,3.545,5.534
						c0.045,1.436-0.194,2.273-0.464,3.156c-0.029,0.12-0.074,0.24-0.104,0.374c2.782-2.034,7.075-4.891,9.094-4.951h0.135
						c1.721,0,2.962,0.972,3.216,2.483c3.455-3.111,6.223-5.52,7.359-6.118l0.074-0.03l0.075-0.03l1.257-0.449l0.239-0.075h0.224
						c1.122,0.044,1.705,0.538,2.005,0.957c0.464,0.658,0.523,1.496,0.225,2.498c-0.105,0.329-0.105,0.329-2.095,2.827
						c-2.198,2.767-6.042,7.583-9.063,11.787c5.878-4.801,7.194-5.729,8.227-5.759c0.104,0,0.194-0.015,0.269-0.015
						c0.135-0.015,0.239-0.015,0.329-0.015c0.778,0,1.241,0.374,1.556,0.688c0.808,0.808,0.688,1.944,0.225,2.662l-0.165,0.24
						l-0.224,0.149c-2.453,1.69-4.233,3.665-5.444,6.073l-0.359,1.555c3.396-1.496,10.664-6.103,12.414-7.359
						c0.314-0.254,1.316-1.72,2.394-3.634c0.149-0.27,17.291-26.624,26.385-26.938h0.09h0.015h0.015c2.244,0,3.665,2.019,3.71,3.455
						c0.149,4.263-6.477,10.335-16.603,19.13c-5.55,4.816-13.955,12.1-13.671,14.314l0.029,0.179l-0.029,0.18v0.015
						c0,0.075-0.104,0.972,0.135,1.944c0.209,0.075,0.568,0.12,1.062,0.12l0.239,0.015h0.135c0.149,0,0.284-0.015,0.464-0.015
						c0.045-0.015,0.135-0.045,0.313-0.12c0.016,0,0.03-0.015,0.061-0.03l0.06-0.03l0.06-0.015c0.015-0.015,0.045-0.03,0.06-0.045
						l0.03-0.015l0.03-0.015c1.899-0.883,4.98-2.827,5.698-3.44c1.047-0.927,2.184-1.75,3.306-2.542
						c2.349-1.661,4.786-3.396,6.207-5.968c0.464-0.867,4.068-6.536,8.018-11.756c7.464-9.842,10.694-11.053,12.444-11.113
						c0.104-0.015,0.194-0.015,0.284-0.015c2.109,0,3.351,1.122,3.41,3.066c0.03,0.718-0.164,1.526-0.554,2.348
						c-0.074,0.165-0.149,0.344-0.239,0.479c-0.074,0.134-0.149,0.269-0.224,0.418c-0.075,0.12-0.15,0.254-0.24,0.374
						c-0.06,0.105-0.119,0.194-0.194,0.299l-0.06,0.09c-0.09,0.134-0.194,0.284-0.284,0.404c-0.074,0.104-0.149,0.209-0.209,0.299
						c-0.061,0.06-0.105,0.135-0.18,0.209l-0.09,0.12c-1.302,1.69-3.096,3.53-4.682,5.101l-0.314,0.299l-0.149,0.149
						c-0.149,0.165-0.313,0.314-0.464,0.464c-0.613,0.598-1.256,1.226-1.899,1.854l-0.254,0.254l-0.149,0.134l-0.554,0.524
						c-0.194,0.194-0.389,0.374-0.583,0.583c-0.688,0.658-1.376,1.332-2.079,2.02l-0.12,0.12l-0.074,0.089l-0.225,0.209
						c-0.104,0.105-0.225,0.225-0.374,0.374c-0.12,0.12-0.239,0.239-0.359,0.359l-0.179,0.195c-0.897,0.912-1.855,1.884-2.768,2.887
						l-0.18,0.194c-0.119,0.12-0.224,0.239-0.344,0.374l-0.27,0.314l-0.06,0.06c-0.239,0.254-0.464,0.524-0.718,0.808
						c-0.255,0.284-0.494,0.568-0.733,0.867c-0.448,0.554-0.808,0.972-1.166,1.466c-0.149,0.18-0.284,0.359-0.419,0.554
						c-0.464,0.613-0.868,1.211-1.241,1.78l-0.329,0.508c-0.105,0.18-0.225,0.374-0.329,0.539c-0.21,0.359-0.404,0.718-0.599,1.092
						c-0.209,0.434-0.374,0.778-0.523,1.107c-0.104,0.239-0.194,0.479-0.284,0.718c-0.09,0.239-0.194,0.538-0.284,0.882
						c-0.03,0.075-0.045,0.149-0.075,0.254l-0.045,0.134c-0.045,0.195-0.074,0.374-0.119,0.568c-0.015,0.12-0.03,0.225-0.045,0.314
						l-0.03,0.194c-0.06,0.449-0.09,0.882-0.074,1.301c0.015,0.165,0.029,0.314,0.045,0.449c0.419-0.03,0.853-0.12,1.241-0.239
						l0.074-0.03l0.18-0.075l0.075-0.03c0.104-0.03,0.209-0.075,0.329-0.12c0.045-0.03,0.09-0.045,0.149-0.09l0.135-0.075
						l0.104-0.06c0.075-0.03,0.149-0.06,0.225-0.104c0.045-0.03,0.09-0.075,0.149-0.12l0.119-0.075l0.09-0.06l0.061-0.045
						c0.06-0.044,0.119-0.075,0.164-0.104l0.12-0.104l0.104-0.09l0.09-0.075c0.104-0.075,0.209-0.165,0.269-0.225l0.09-0.075
						l0.075-0.075c0.119-0.12,0.239-0.225,0.344-0.344l0.149-0.149c0.18-0.194,0.359-0.389,0.539-0.598
						c0.254-0.299,0.523-0.628,0.822-1.017c0.06-0.09,0.12-0.165,0.194-0.254l0.09-0.135c0.404-0.553,0.793-1.107,1.182-1.675
						l0.225-0.314c0.583-0.823,1.032-1.451,1.466-1.989c0.448-0.598,0.912-1.107,1.331-1.526c0.718-0.733,1.421-1.256,2.154-1.63
						c0.269-0.149,0.479-0.254,0.747-0.359l0.105-0.045l0.074-0.015c0.104-0.03,0.21-0.075,0.27-0.09
						c0.27-0.075,0.538-0.135,0.853-0.18c0.239-0.045,0.464-0.06,0.732-0.075c0.135,0,0.27,0,0.39,0
						c0.583,0,1.271,0.075,1.974,0.643c0.688,0.539,0.987,1.436,0.823,2.408c0,0.209-0.03,0.419-0.09,0.673
						c0,0.06-0.015,0.134-0.045,0.209c-0.09,0.314-0.225,0.658-0.449,1.062l-0.134,0.254l-0.016,0.03l-0.015,0.03l-0.045,0.045
						c-0.045,0.089-0.09,0.165-0.135,0.239c-0.18,0.269-0.389,0.553-0.658,0.882c-0.135,0.18-0.284,0.344-0.434,0.509
						c-1.331,1.541-3.156,3.081-4.383,4.113v0.015c0.15-0.03,0.3-0.075,0.494-0.135c0.912-0.269,1.989-0.703,3.006-1.122
						c0.27-0.12,0.539-0.224,0.823-0.344l-0.03-0.104l1.077-0.344l0.06-0.015l0.015-0.015c2.692-1.137,5.505-2.244,7.764-2.318
						c0.119,0,0.239-0.015,0.344-0.015c2.139,0,3.261,1.077,3.335,3.246c0,0.09,0,0.224-0.029,0.389c0,0.06-0.016,0.105-0.03,0.165
						v0.075l-0.045,0.15c-0.045,0.165-0.104,0.344-0.18,0.538c-0.089,0.254-0.209,0.524-0.344,0.808
						c-0.225,0.463-0.479,0.942-0.732,1.391c0.06-0.03,0.119-0.044,0.179-0.06c0.12-0.03,0.314-0.075,0.613-0.09h0.075h0.015
						c0.763,0.015,1.257,0.389,1.481,0.568l0.389,0.06l0.284,0.418l0.045,0.075c0.598,0.867,0.673,2.184-0.329,3.036
						c-0.883,0.748-2.633,1.211-3.5,1.241c-0.09,0-0.18,0-0.255,0c-2.691,0-4.547-1.615-4.621-4.053
						c-0.016-0.209,0.015-0.434,0.09-0.688c0.119-0.539,0.434-1.271,0.777-1.989c-0.972,0.329-2.02,0.853-3.141,1.391
						c-0.345,0.165-0.688,0.329-1.032,0.494c-2.109,1.002-4.383,1.929-6.746,2.019c-0.074,0-0.149,0-0.225,0
						c-1.705,0-3.11-0.658-4.247-2.034c-3.126,1.735-5.505,2.902-6.865,2.946c-0.135,0-0.27,0-0.39,0
						c-2.229,0-3.709-0.673-4.442-2.004c-0.269-0.494-0.418-1.047-0.448-1.66c-0.03-0.583,0-1.212,0.104-1.945
						c0.06-0.434,0.135-0.808,0.194-1.092c0.016-0.075,0.03-0.135,0.06-0.224l0.016-0.105l0.015-0.075
						c0.045-0.149,0.075-0.314,0.104-0.419c0.12-0.418,0.225-0.808,0.329-1.167c-0.374,0.284-0.763,0.568-1.166,0.853h0.403
						l-3.844,2.244l-0.225,0.135l-0.119,0.075l-0.135,0.075l-0.09,0.06c-0.21,0.105-0.404,0.225-0.599,0.329
						c-2.169,1.197-3.919,1.795-5.324,1.855c-0.09,0-0.18,0-0.27,0c-1.002,0-1.975-0.209-2.797-0.598
						c-0.733-0.344-1.376-0.823-1.854-1.406h-0.075l-0.359-0.583l-0.06-0.104c-0.045-0.075-0.104-0.18-0.149-0.299
						c-0.06-0.12-0.12-0.254-0.165-0.374c-0.029-0.075-0.06-0.165-0.089-0.24c-0.045-0.12-0.09-0.269-0.12-0.434
						c-0.09-0.374-0.149-0.763-0.164-1.122v-0.18c-0.03-0.344-0.03-0.643,0.045-1.077c-2.214,1.361-5.445,3.246-8.018,4.308
						l-0.09,0.045c-1.331,0.553-2.378,0.822-3.171,0.853c-0.09,0.015-0.18,0.015-0.27,0.015c-1.106,0-1.974-0.269-2.603-0.808h-0.09
						l-0.358-0.479l-0.045-0.06c-0.12-0.149-0.18-0.299-0.225-0.389c-0.135-0.284-0.239-0.583-0.299-0.882
						c-0.015-0.105-0.03-0.209-0.045-0.359c-0.015-0.12-0.03-0.254-0.03-0.344c0-0.075,0-0.18,0-0.284
						c-1.182,1.122-2.527,2.273-4.353,2.333h-0.149c-1.765,0-2.946-1.196-3.021-3.081c-0.045-1.421,0.658-3.275,1.75-5.235
						c-2.363,2.273-4.666,4.622-6.656,7c-0.104,0.135-0.209,0.254-0.313,0.374l-0.464,0.598l-0.225,0.284
						c-0.299,0.359-0.568,0.733-0.837,1.107l-0.016,0.12l-0.299,0.284l-0.344,0.463l-0.584,0.015h-0.074l-0.599,0.015l-0.27,0.015
						h-0.074l-0.494,0.03l-0.373-0.344l-0.045-0.03c-0.284-0.254-0.494-0.568-0.644-0.942c-0.149-0.389-0.165-0.718-0.165-0.942
						l0.03-0.434l0.225-0.314l0.509-0.703L642.566,354.852z"/>
					<path d="M708.019,335.557c-0.044,0-0.074-0.015-0.119-0.015c-0.03,0-0.075,0-0.104,0.015
						C707.869,335.557,707.944,335.557,708.019,335.557z M702.396,361.672c0.029,0.03,0.06,0.045,0.089,0.06
						C702.455,361.702,702.425,361.687,702.396,361.672z M670.671,372.441c-0.12,0.015-0.21,0-0.329,0
						c0.074,0,0.149,0.015,0.225,0.015C670.611,372.457,670.641,372.457,670.671,372.441z M658.975,357.888l-0.016-0.015
						c-0.015,0-0.045,0.015-0.074,0.015c0.029,0,0.06,0,0.074,0H658.975z M652.977,371.215c0.09,0.015,0.164,0.03,0.254,0.03h0.015
						C653.156,371.245,653.066,371.23,652.977,371.215z M647.158,349.676c0.927,0.165,1.48,0.793,1.511,1.735
						c0.029,0.927-0.225,1.256-0.928,2.168c-0.329,0.434-0.777,1.017-1.376,1.915c-0.015,0-0.344,0.344-0.673,0.808
						c0.613-0.554,1.376-1.242,2.198-2.004c3.575-3.246,8.466-7.703,9.857-8.436l1.211-0.434h0.03h0.045
						c0.493,0.015,0.853,0.165,1.047,0.449c0.225,0.329,0.254,0.792,0.045,1.451c-0.03,0.09-0.239,0.359-1.854,2.378
						c-3.246,4.083-9.992,12.549-12.595,17.111l-0.06,0.568c1.212-0.853,3.097-2.393,5.101-4.023
						c4.144-3.395,6.91-5.609,7.673-5.639c0.12,0,0.239,0,0.329-0.015c0.09,0,0.18-0.015,0.239-0.015
						c0.284,0,0.449,0.09,0.703,0.344c0.389,0.389,0.209,0.927,0.06,1.152l-0.029,0.03l-0.016,0.03
						c-2.692,1.825-4.621,4.009-5.908,6.641l-0.853,3.635c0.03,0,0.075,0,0.135,0h0.075c2.572-0.09,13.656-7.419,14.523-8.032
						c0.644-0.434,2.034-2.737,2.767-4.039c0.987-1.765,17.485-26.041,25.353-26.31h0.09c1.571,0,2.469,1.511,2.498,2.289
						c0.135,3.993-8.166,11.203-16.184,18.173c-7.104,6.147-14.448,12.519-14.075,15.376v0.015v0.03
						c0,0.015-0.164,1.242,0.195,2.543c0.044,0.179,0.119,0.314,0.239,0.434c0.06,0.06,0.134,0.104,0.209,0.165
						c0.06,0.03,0.12,0.06,0.194,0.09h0.03l0.029,0.015c0.374,0.135,0.883,0.195,1.676,0.209v0.18l0.06-0.18h0.135
						c0.18,0,0.374,0,0.568-0.015c0.06,0,0.225-0.015,0.628-0.195h0.03c0.045-0.03,0.09-0.045,0.164-0.089
						c0.061-0.015,0.12-0.045,0.194-0.09c1.885-0.883,5.116-2.887,5.983-3.635c0.973-0.868,2.049-1.63,3.201-2.453
						c2.468-1.75,5.011-3.56,6.581-6.387c0.448-0.837,3.979-6.401,7.912-11.592c5.295-6.985,9.184-10.575,11.532-10.649
						c0.074,0,0.149,0,0.225,0c1.45,0,2.168,0.613,2.213,1.899c0.016,0.523-0.134,1.137-0.448,1.825
						c-0.06,0.12-0.12,0.254-0.194,0.374c-0.075,0.135-0.149,0.269-0.225,0.389c-0.06,0.105-0.119,0.209-0.18,0.314
						c-0.074,0.12-0.18,0.254-0.254,0.389c-0.09,0.12-0.18,0.254-0.284,0.404c-0.06,0.075-0.12,0.165-0.194,0.254
						c-0.03,0.045-0.075,0.104-0.12,0.165c-0.045,0.045-0.074,0.09-0.119,0.149c-1.271,1.63-3.021,3.425-4.577,4.966
						c-0.149,0.15-0.299,0.314-0.464,0.464c-0.149,0.149-0.313,0.299-0.464,0.464c-0.688,0.673-1.421,1.376-2.153,2.079l-0.149,0.15
						l-0.539,0.523c-0.194,0.194-0.389,0.374-0.598,0.568c-0.719,0.718-1.451,1.436-2.199,2.169l-0.074,0.075l-0.21,0.209
						c-0.135,0.12-0.254,0.239-0.374,0.374c-0.135,0.12-0.254,0.254-0.374,0.374l-0.194,0.194c-1.062,1.077-1.944,1.99-2.797,2.917
						l-0.18,0.194c-0.119,0.135-0.239,0.254-0.358,0.389l-0.27,0.314c-0.254,0.284-0.523,0.583-0.763,0.867
						c-0.27,0.299-0.523,0.613-0.778,0.913c-0.434,0.539-0.808,0.987-1.166,1.466c-0.165,0.194-0.3,0.389-0.449,0.583
						c-0.479,0.643-0.897,1.256-1.301,1.87l-0.314,0.508c-0.119,0.18-0.254,0.389-0.358,0.583c-0.225,0.374-0.435,0.748-0.644,1.167
						c-0.225,0.434-0.389,0.808-0.538,1.152c-0.12,0.269-0.225,0.523-0.314,0.792c-0.104,0.27-0.21,0.583-0.314,0.928
						c-0.029,0.104-0.06,0.194-0.074,0.299l-0.045,0.18c-0.061,0.209-0.104,0.419-0.149,0.628c-0.016,0.12-0.03,0.24-0.061,0.359
						l-0.015,0.209c-0.075,0.493-0.104,1.002-0.09,1.496c0.015,0.359,0.045,0.643,0.104,0.882c0.135,0.628,0.39,0.733,0.853,0.733
						c0.061,0,0.12,0,0.18,0c0.583-0.03,1.182-0.12,1.735-0.299c0.06-0.03,0.104-0.044,0.164-0.075
						c0.045-0.015,0.075-0.03,0.12-0.045l0.09-0.03c0.135-0.045,0.269-0.104,0.403-0.165c0.09-0.03,0.165-0.075,0.239-0.12
						l0.105-0.06l0.119-0.06c0.09-0.045,0.18-0.104,0.284-0.165c0.06-0.045,0.135-0.09,0.209-0.135l0.105-0.075l0.104-0.075
						c0.09-0.06,0.194-0.12,0.284-0.194c0.045-0.045,0.104-0.09,0.149-0.135l0.09-0.075l0.06-0.045
						c0.135-0.104,0.255-0.209,0.374-0.314l0.09-0.075l0.06-0.075c0.18-0.149,0.345-0.314,0.509-0.493l0.09,0.089l-0.06-0.12
						c0.194-0.209,0.389-0.434,0.583-0.643c0.27-0.314,0.554-0.673,0.838-1.047c0.074-0.105,0.164-0.209,0.224-0.299l0.105-0.134
						c0.403-0.569,0.808-1.137,1.196-1.706l0.225-0.314c0.568-0.823,1.017-1.421,1.421-1.944c0.419-0.539,0.837-1.017,1.256-1.421
						c0.613-0.628,1.227-1.092,1.855-1.421c0.224-0.12,0.389-0.194,0.568-0.27l0.119-0.03c0.104-0.045,0.21-0.075,0.299-0.104
						c0.21-0.06,0.419-0.105,0.703-0.15c0.165-0.03,0.329-0.045,0.554-0.045c0.135-0.015,0.254-0.015,0.359-0.015
						c0.479,0,0.822,0.075,1.227,0.389c0.523,0.419,0.403,1.197,0.358,1.361c0.015,0.149,0,0.314-0.045,0.508
						c-0.015,0.045-0.029,0.105-0.029,0.12c-0.061,0.239-0.18,0.524-0.345,0.838l-0.149,0.254l-0.045,0.089
						c-0.029,0.045-0.074,0.105-0.104,0.15c-0.149,0.254-0.344,0.508-0.583,0.808c-0.135,0.165-0.27,0.314-0.404,0.479
						c-1.301,1.466-3.081,2.992-4.263,3.994l-0.359,0.299l-0.06,0.044c-0.239,0.225-0.464,0.404-0.628,0.554
						c-0.21,0.209-0.27,0.284-0.27,0.299c-0.06,0.12-0.06,0.239-0.015,0.374c0.074,0.135,0.225,0.284,0.434,0.419
						c0.284,0.165,0.628,0.269,0.957,0.269c0,0,0,0,0.016,0c0.389-0.015,0.882-0.12,1.54-0.314c0.987-0.284,2.139-0.748,3.126-1.167
						c0.374-0.15,0.763-0.314,1.152-0.479l0.612-0.254v-0.015l0.09-0.03h0.03l0.03-0.015c2.603-1.107,5.31-2.184,7.358-2.258
						c0.12,0,0.225,0,0.314,0c1.271,0,2.064,0.344,2.124,2.034c0,0.06,0,0.149-0.016,0.194c0,0.06-0.015,0.12-0.029,0.194v0.015
						l-0.015,0.03c-0.03,0.135-0.09,0.299-0.15,0.464c-0.074,0.224-0.194,0.463-0.313,0.703c-0.464,1.002-1.137,2.124-1.586,2.647
						l-0.045,0.06c-0.029,0.03-0.045,0.06-0.06,0.06c0,0-0.09,0.135-0.149,0.285c-0.045,0.104-0.075,0.254,0,0.359
						c0.074,0.12,0.299,0.179,0.628,0.179c0.165,0,0.359-0.015,0.568-0.045c0.27-0.03,0.509-0.134,0.778-0.254
						c0.209-0.09,0.434-0.195,0.673-0.254l0.045-0.015c0.09-0.015,0.194-0.045,0.313-0.045c0.016,0,0.03,0,0.045,0
						c0.419,0,0.658,0.209,0.808,0.329c0.03,0.03,0.075,0.06,0.12,0.09l0.03,0.03c0.06,0.045,0.104,0.06,0.179,0.06l0.075,0.015
						l0.03,0.06c0.209,0.299,0.434,0.972-0.12,1.451c-0.599,0.509-2.064,0.928-2.752,0.958c-0.075,0-0.149,0-0.21,0
						c-2.049,0-3.365-1.107-3.425-2.887c0-0.105,0.015-0.225,0.06-0.374c0.225-0.897,1.167-2.797,1.811-3.904v-0.015
						c-0.03,0-0.075,0.015-0.135,0.015c-0.061,0-0.165,0-0.284,0c-0.165,0.015-0.345,0.03-0.509,0.06l-0.09,0.015v-0.015
						c-0.135,0.03-0.27,0.045-0.374,0.075c-0.029,0-0.045,0-0.09,0.015h-0.015v0.015c-1.331,0.299-2.797,1.002-4.353,1.75
						c-0.344,0.179-0.688,0.344-1.047,0.508c-1.989,0.942-4.113,1.825-6.268,1.9c-0.06,0.015-0.119,0.015-0.18,0.015
						c-1.63,0-2.871-0.763-3.889-2.408c-0.149,0.075-0.389,0.225-0.673,0.374c-1.69,0.942-5.19,2.887-6.581,2.932
						c-0.12,0.015-0.239,0.015-0.359,0.015c-1.75,0-2.887-0.479-3.38-1.391c-0.194-0.329-0.284-0.718-0.314-1.137
						c-0.015-0.494,0.015-1.062,0.104-1.705c0.061-0.389,0.12-0.733,0.194-1.062c0-0.045,0.016-0.09,0.03-0.135
						c0-0.045,0.015-0.089,0.03-0.134l0.015-0.075c0.03-0.134,0.06-0.269,0.09-0.389c0.149-0.553,0.284-1.032,0.448-1.481
						c0.075-0.269,0.18-0.553,0.284-0.853c0.18-0.523,0.39-1.077,0.674-1.735l0.269-0.643c-0.658,0.434-1.466,1.017-2.393,1.675
						c-0.688,0.493-1.421,1.032-2.199,1.57c-0.329,0.225-0.643,0.449-0.972,0.658c-0.061,0.045-0.12,0.09-0.165,0.104
						c-0.06,0.045-0.119,0.09-0.18,0.12c-0.044,0.045-0.104,0.075-0.164,0.12c-0.18,0.105-0.329,0.209-0.493,0.314
						c-0.18,0.12-0.345,0.224-0.509,0.329c-0.239,0.149-0.449,0.284-0.658,0.404l-0.225,0.134c-0.09,0.06-0.18,0.105-0.254,0.15
						l-0.09,0.045c-0.194,0.12-0.389,0.224-0.583,0.329c-1.99,1.107-3.561,1.661-4.787,1.706c-0.074,0-0.149,0.015-0.224,0.015
						c-0.823,0-1.601-0.179-2.289-0.494c-0.748-0.344-1.346-0.882-1.75-1.525l-0.045-0.09c-0.029-0.045-0.074-0.104-0.074-0.149
						l-0.045-0.06l-0.016-0.045c-0.045-0.089-0.074-0.179-0.119-0.269c-0.015-0.045-0.03-0.09-0.03-0.12
						c-0.045-0.12-0.09-0.239-0.119-0.359c-0.075-0.299-0.12-0.599-0.12-0.913c0-0.075-0.015-0.149-0.015-0.209
						c-0.045-0.508-0.075-0.882,0.793-3.291v-0.03l0.029-0.03c0.165-0.209,0.314-0.449,0.404-0.599
						c-0.09,0.045-0.225,0.12-0.404,0.254c-0.029,0.03-0.06,0.045-0.09,0.06c-0.029,0.03-0.045,0.044-0.09,0.06
						c-0.628,0.419-6.326,4.143-10.275,5.789l-0.045,0.015c-1.196,0.494-2.139,0.763-2.812,0.793c-0.075,0-0.149,0-0.21,0
						c-1.002,0-1.689-0.269-2.094-0.808l-0.06-0.075c-0.03-0.045-0.06-0.105-0.075-0.15c-0.104-0.194-0.18-0.404-0.209-0.613
						c-0.015-0.075-0.03-0.165-0.03-0.269c-0.015-0.075-0.029-0.149-0.029-0.239c-0.016-0.583,0.149-1.944,0.373-3.111
						c-0.688,0.344-1.36,0.987-2.063,1.675c-1.151,1.107-2.363,2.273-3.904,2.318c-0.045,0-0.074,0-0.119,0
						c-1.107,0-1.75-0.673-1.81-1.915c-0.12-3.844,6.805-12.31,9.961-15.57c-1.271,1.196-2.617,2.438-4.099,3.784l-0.119,0.12
						c-0.344,0.314-0.688,0.628-1.032,0.957l-1.361,1.257c-3.59,3.291-7.344,6.835-10.38,10.5c-0.284,0.329-0.538,0.643-0.808,0.972
						l-0.225,0.284c-0.299,0.389-0.599,0.792-0.883,1.182l-0.104,0.134c-0.029,0.045-0.045,0.075-0.074,0.105v0.015l-0.045,0.045
						l-0.045,0.06h-0.016h-0.074l-0.599,0.03h-0.284l-0.074,0.015l-0.045-0.06c-0.15-0.12-0.255-0.284-0.329-0.463
						c-0.075-0.209-0.09-0.389-0.09-0.449v-0.06l0.045-0.045l0.508-0.718l13.163-18.532c-0.016,0-0.045,0-0.06,0h-0.09
						c-1.302,0.06-4.802,2.229-9.603,5.968c-2.843,2.213-5.25,4.263-5.55,4.606c-0.015,0.015-0.029,0.045-0.06,0.06l-0.045,0.06
						l-0.135,0.165l-0.149,0.18l-0.03,0.045c-0.074,0.09-0.149,0.179-0.239,0.284c-0.09,0.12-0.194,0.254-0.313,0.389l-0.135,0.18
						c-0.075,0.09-0.149,0.179-0.225,0.269c-0.03,0.045-0.074,0.075-0.104,0.135l-0.09,0.104c-0.12,0.15-0.239,0.299-0.359,0.449
						l-0.074,0.09c-0.075,0.09-0.165,0.18-0.239,0.27c-0.718,0.882-1.451,1.735-2.139,2.513c-0.644,0.703-1.332,1.466-2.034,2.199
						c-0.255,0.269-0.524,0.539-0.793,0.792c-2.707,2.678-4.861,4.173-6.402,4.442c-0.06,0.015-0.104,0.015-0.164,0.015
						c-0.464,0-0.777-0.314-1.047-0.613l-0.12-0.135c-0.045-0.06-0.104-0.12-0.149-0.179l-0.104-0.105l0.104-0.12
						c0.853-1.077,1.899-2.214,3.306-3.545l0.06-0.06c0.853-0.838,1.75-1.63,2.708-2.483l0.344-0.314
						c0.164-0.149,0.344-0.299,0.509-0.463l0.239-0.225l0.269-0.224c0.165-0.15,0.329-0.299,0.494-0.449
						c0.329-0.299,0.658-0.583,0.972-0.882c0.987-0.897,2.273-2.079,3.455-3.321l0.075-0.075c0.045-0.045,0.074-0.075,0.119-0.12
						c0.284-0.299,0.554-0.598,0.838-0.913c0.21-0.239,0.419-0.479,0.613-0.718c0.12-0.135,0.225-0.254,0.299-0.359
						c0.21-0.254,0.404-0.494,0.599-0.748s0.374-0.508,0.554-0.778c0.09-0.12,0.18-0.239,0.254-0.359
						c0.644-0.972,1.137-1.885,1.511-2.782c0.12-0.239,0.21-0.479,0.299-0.733c0.03-0.104,0.075-0.239,0.12-0.359
						c0.06-0.194,0.119-0.374,0.164-0.553c0.21-0.748,0.345-1.526,0.404-2.304c0.015-0.239,0.015-0.479,0.015-0.718
						c0-0.12,0-0.254,0-0.404c-0.074-1.959-1.047-2.528-2.498-3.38c-0.972-0.568-2.153-1.271-3.35-2.603
						c-0.03-0.06-0.733-1.421-0.045-2.154c0.224-0.239,0.508-0.359,0.822-0.359c0.464,0,0.853,0.269,0.883,0.284l0.015,0.015
						l0.015,0.03c1.287,1.795,2.633,2.707,3.814,3.515c1.63,1.092,2.917,1.959,3.007,4.562c0.045,1.242-0.15,1.915-0.404,2.767
						c-0.239,0.808-0.523,1.78-0.688,3.575c1.705-1.48,8.675-6.521,10.844-6.596h0.119
						C646.813,349.631,646.993,349.646,647.158,349.676z M710.966,370.303c0.015,0.015,0.029,0.03,0.045,0.044
						C710.995,370.317,710.98,370.317,710.966,370.303z M707.779,337.576l-0.538,0.015c-5.041,3.739-10.545,10.739-13.955,16.229
						c1.062-1.107,2.154-2.244,3.23-3.351C700.734,346.102,705.117,341.6,707.779,337.576z M674.38,355.33
						c8.615-6.611,22.212-18.038,22.077-21.718c0-0.299-0.075-0.329-0.344-0.329c-0.09,0-0.194,0.015-0.314,0.015
						c-0.104,0-0.209,0.015-0.314,0.015C686.48,337.367,678.06,349.482,674.38,355.33z M648.399,350.903
						c-0.015-0.075-0.045-0.165-0.075-0.224C648.354,350.738,648.369,350.828,648.399,350.903z"/>
					<path d="M711.011,370.347c-0.016-0.015-0.03-0.03-0.045-0.044C710.98,370.317,710.995,370.317,711.011,370.347z"/>
					<path fill="#FFFFFF" d="M708.019,335.557c-0.074,0-0.149,0-0.224,0c0.029-0.015,0.074-0.015,0.104-0.015
						C707.944,335.542,707.975,335.557,708.019,335.557z"/>
					<path fill="#FFFFFF" d="M707.241,337.591l0.538-0.015c-2.662,4.023-7.045,8.525-11.263,12.893
						c-1.076,1.107-2.169,2.244-3.23,3.351C696.696,348.33,702.2,341.33,707.241,337.591z M698.103,347.957
						c2.572-2.678,5.056-5.34,7.074-7.868C702.694,342.347,700.241,345.174,698.103,347.957z"/>
					<polygon fill="#6D2B90" points="704.563,423.864 704.563,433.886 672.885,433.886 672.885,399.798 672.885,383.151 
						685.313,383.151 685.313,423.864 					"/>
					<path fill="#FFFFFF" d="M702.396,361.672c0.029,0.015,0.06,0.03,0.089,0.06C702.455,361.717,702.425,361.702,702.396,361.672z"
						/>
					<path fill="#FFFFFF" d="M705.177,340.089c-2.019,2.528-4.502,5.19-7.074,7.868
						C700.241,345.174,702.694,342.347,705.177,340.089z"/>
					<path fill="#FFFFFF" d="M694.677,335.063c-5.608,3.037-10.963,9.184-14.837,14.404
						C688.006,342.781,693.077,337.651,694.677,335.063z M696.457,333.612c0.135,3.68-13.462,15.107-22.077,21.718
						c3.68-5.848,12.101-17.963,21.104-22.017c0.105,0,0.21-0.015,0.314-0.015c0.12,0,0.225-0.015,0.314-0.015
						C696.382,333.283,696.457,333.313,696.457,333.612z"/>
					<path d="M687.901,456.95l2.378,5.788h-3.32l-1.779-4.622c-0.419-1.106-0.809-1.525-2.064-1.525h-0.942v6.147h-2.977v-14.808
						h3.201c0.149,0,0.313,0,0.464,0c3.081,0,6.521,0.09,6.521,4.009c0,1.75-1.166,3.186-3.051,3.44v0.044
						C687.139,455.484,687.603,456.292,687.901,456.95z M686.286,452.193c0-1.779-1.66-1.93-3.141-1.93h-0.973v3.994h0.973
						C684.611,454.258,686.286,454.048,686.286,452.193z"/>
					<path fill="#FFFFFF" d="M670.671,372.441c-0.03,0.015-0.06,0.015-0.104,0.015c-0.075,0-0.15-0.015-0.225-0.015
						C670.461,372.441,670.551,372.457,670.671,372.441z"/>
					<path fill="#6D2B90" d="M670.7,399.798c0,10.246-6.88,16.349-18.517,16.349h-4.816v17.739h-12.43v-50.735h14.838
						C664.015,383.151,670.7,388.386,670.7,399.798z M658.271,399.574c0-5.161-3.41-6.836-7.688-6.836h-3.216v13.82h3.216
						C654.861,406.559,658.271,404.884,658.271,399.574z"/>
					<path fill="#FFFFFF" d="M662.16,355.061v-0.165c0.389,0,0.763-0.149,0.777-0.149l0.016-0.015l0.029-0.015
						c0.808-0.569,1.66-1.451,1.631-2.244c-0.03-0.509-0.045-0.599-0.27-0.748c-0.045-0.03-0.09-0.075-0.164-0.135l-0.045-0.045
						h-0.061c-0.09,0-0.164-0.03-0.269-0.075c-0.165-0.06-0.374-0.149-0.733-0.149h-0.09c-0.344,0.015-0.673,0.194-0.987,0.539
						c-0.479,0.523-0.808,1.361-0.792,1.63c0,0.12,0,0.224,0,0.314c-0.016,0.434-0.016,0.703,0.403,0.957
						c0.135,0.09,0.314,0.135,0.539,0.135L662.16,355.061z M665.81,352.429c0.075,1.556-1.48,2.812-2.153,3.291l-0.135,0.09
						l-0.135,0.045c-0.03,0.015-0.599,0.239-1.241,0.239c-0.449,0-0.838-0.105-1.167-0.299c-1.002-0.613-0.987-1.511-0.987-2.004
						c0-0.075,0-0.165,0-0.224c-0.045-0.748,0.538-1.9,1.122-2.528c0.658-0.733,1.346-0.897,1.854-0.927h0.09h0.015
						c0.539,0,0.897,0.134,1.152,0.239h0.373l0.345,0.314l0.029,0.015c0.03,0.03,0.045,0.045,0.061,0.045
						C665.765,351.247,665.795,351.875,665.81,352.429z"/>
					<path d="M662.13,354.702v0.015l0.016,0.179c-0.225,0-0.404-0.045-0.539-0.135c-0.419-0.254-0.419-0.523-0.403-0.957
						c0-0.09,0-0.194,0-0.314c-0.016-0.27,0.313-1.107,0.792-1.63c0.314-0.344,0.644-0.523,0.987-0.539h0.09
						c0.359,0,0.568,0.09,0.733,0.149c0.104,0.045,0.179,0.075,0.269,0.075h0.061l0.045,0.045c0.074,0.06,0.119,0.105,0.164,0.135
						c0.225,0.149,0.239,0.239,0.27,0.748c0.029,0.792-0.823,1.675-1.631,2.244l-0.029,0.015l-0.016,0.015
						c-0.015,0-0.389,0.149-0.777,0.149l-0.015-0.179l0.015-0.015h-0.015v-0.015l-0.061-0.583L662.13,354.702z"/>
					<polygon fill="#FFFFFF" points="662.16,354.702 662.146,354.717 662.146,354.702 					"/>
					<polygon fill="#FFFFFF" points="662.16,354.896 662.16,355.061 662.146,354.896 					"/>
					<rect x="662.13" y="354.702" fill="#FFFFFF" width="0.016" height="0.015"/>
					<path fill="#FFFFFF" d="M658.959,357.873l0.016,0.015h-0.016c-0.015,0-0.045,0-0.074,0
						C658.914,357.888,658.944,357.873,658.959,357.873z"/>
					<path fill="#FFFFFF" d="M652.977,371.215c0.09,0.015,0.18,0.03,0.269,0.03h-0.015
						C653.141,371.245,653.066,371.23,652.977,371.215z"/>
					<path d="M648.324,350.679c0.03,0.06,0.061,0.149,0.075,0.224C648.369,350.828,648.354,350.738,648.324,350.679z"/>
					<polygon points="643.18,447.931 643.18,450.264 638.932,450.264 638.932,462.738 635.955,462.738 635.955,450.264 
						631.722,450.264 631.722,447.931 					"/>
					<path fill="#6D2B90" d="M616.316,383.151l17.979,50.735h-13.642l-3.47-10.829h-17.515l-3.679,10.829H583.35l0.284-0.822
						l17.44-49.913H616.316z M614.237,413.469l-5.549-19.848h-0.135l-6.013,19.848H614.237z"/>
					<path fill="#FFFFFF" d="M600.432,362.241c-1.795,2.812-3.231,5.684-4.727,8.735c-1.421,2.857-2.872,5.803-4.727,8.87
						l-0.03,0.045v0.015l-0.195,0.269l-0.254,0.149c-0.075,0.03-0.718,0.419-1.526,0.419c-0.314,0-0.613-0.06-0.897-0.165
						c-1.002-0.419-1.391-1.301-1.421-1.944v-0.06v-0.015v-0.344l0.149-0.284c0.419-0.823,0.958-1.854,1.571-3.036
						c0.015,0,0.015-0.015,0.015-0.015c0.09-0.09,0.165-0.194,0.239-0.284c1.496-1.78,2.558-3.066,2.977-4.203l0.075-0.194
						l0.015-0.254c0-0.299-0.06-0.598-0.209-0.882c0.015-0.015,0-0.015,0-0.015c4.592-8.525,10.77-19.729,14.015-25.113
						c-1.331,0.314-3.141,0.763-4.427,1.077c-5.28,1.316-6.282,1.541-6.656,1.556l-0.314,0.015c-0.149,0-0.284,0-0.434,0
						c-1.376,0-2.318-0.628-3.141-2.094l-0.105-0.194l-0.703-1.271l1.376-0.464l0.209-0.06c2.752-0.927,12.19-3.665,16.498-3.814
						c0.105,0,0.209,0,0.314,0c3.051,0,3.455,2.049,3.485,2.931c0.09,2.408-3.201,7.613-6.865,13.192
						c-0.509,0.778-1.227,1.87-1.556,2.408c0.344,0.554,1.899,1.077,4.487,1.077c0.359,0,0.598-0.015,0.673-0.015
						c0.165,0,0.329,0,0.464,0c0.822-0.015,0.957-0.015,1.63-1.197c0.179-0.329,0.523-0.972,0.912-1.735l0.03-0.075
						c0.374-0.703,0.793-1.496,1.212-2.289c-0.583-0.239-1.062-0.823-1.092-1.81c-0.06-1.436,1.615-3.141,7.464-7.599
						c0.358-0.284,0.957-0.748,1.076-0.853l0.061-0.06l0.074-0.045c0.27-0.18,0.987-0.628,1.766-0.628
						c0.434,0,0.837,0.15,1.166,0.404c0.045,0.045,0.09,0.075,0.135,0.105c0.284,0.194,0.464,0.404,0.583,0.628
						c0.21,0.344,0.239,0.733,0.255,1.137c0.045,0.883-0.539,1.706-2.782,4.712c-1.78,2.408-4.113,5.534-5.684,8.466
						c0.523,0.015,1.106,0.045,1.75,0.089l0.284,0.015l1.989,0.135l-1.032,1.705l-0.149,0.239c-1.018,1.66-3.036,1.87-4.397,2.004
						c-0.27,0.03-0.658,0.075-0.883,0.12c-0.673,1.062-1.959,4.457-2.932,7c-0.463,1.211-0.853,2.213-1.182,3.051v0.015
						c-0.449,0.314-0.763,0.793-0.897,1.346c-0.06,0.27-0.075,0.554-0.03,0.808c0.015,0.015,0,0.015,0,0.03
						c-0.703,1.451-1.151,1.795-1.884,1.825h-0.12c-1.69,0-1.914-1.152-2.527-4.233l-0.045-0.225
						c-0.195-0.927-0.434-2.124-0.748-3.649C602.675,367.251,601.538,364.648,600.432,362.241z M620.34,348.255
						c1.734-2.333,2.558-3.47,2.542-3.934c-0.015-0.553-0.045-0.643-0.344-0.837c-0.045-0.045-0.104-0.09-0.18-0.15
						c-0.119-0.09-0.254-0.134-0.418-0.134c-0.479,0-1.048,0.404-1.077,0.418c-0.149,0.12-0.599,0.479-1.167,0.913
						c-3.41,2.587-7.03,5.459-6.985,6.596c0.016,0.748,0.419,0.778,0.494,0.778c0.718-0.015,1.466-0.644,2.02-1.137
						c-0.868,1.421-1.96,3.515-2.797,5.13c-0.419,0.808-0.748,1.436-0.942,1.78c-1.017,1.78-1.63,1.795-2.663,1.795
						c-0.134,0-0.269,0-0.434,0.015c0,0-0.269,0.015-0.703,0.015c-1.72,0-5.699-0.239-5.773-2.453
						c0.045-0.194,0.913-1.511,1.825-2.902c2.528-3.844,6.746-10.275,6.671-12.489c-0.045-1.211-0.778-1.765-2.288-1.765
						c-0.09,0-0.18,0-0.27,0c-3.949,0.134-13.042,2.707-16.168,3.754l-0.195,0.06l0.105,0.194c0.688,1.242,1.286,1.481,2.094,1.481
						c0.135,0,0.27,0,0.419-0.015l0.254-0.015c0.329,0,2.647-0.568,6.432-1.511c2.842-0.703,6.058-1.496,6.357-1.511l0.284-0.015
						c0.12,0,0.224,0,0.314,0c0.075,0,0.134,0,0.194,0.015c-3.246,4.816-16.289,28.733-20.058,36.152l-0.015,0.044v0.045
						c0,0.03,0.03,0.628,0.673,0.883c0.134,0.06,0.284,0.075,0.434,0.075c0.464,0,0.897-0.239,0.913-0.239l0.045-0.03l0.015-0.03
						c1.825-3.036,3.276-5.953,4.682-8.795c1.825-3.724,3.575-7.224,5.998-10.665c0.643,1.361,3.216,6.985,3.365,7.688
						c0.344,1.646,0.598,2.917,0.793,3.889c0.583,2.902,0.658,3.261,1.346,3.261h0.09c0.434-0.015,1.047-1.421,2.902-6.297
						c1.167-3.066,2.498-6.536,3.216-7.479c0.209-0.269,0.882-0.329,1.616-0.404c1.227-0.135,2.767-0.284,3.47-1.436l0.149-0.239
						l-0.299-0.03c-0.793-0.045-1.525-0.075-2.139-0.075c-0.568,0-0.942,0.015-1.197,0.03c-0.119,0.015-0.209,0.015-0.284,0.015
						C615.18,355.196,618.156,351.187,620.34,348.255z"/>
					<path d="M606.624,367.76c0.165-0.419,0.314-0.823,0.479-1.241c0.613-1.616,1.256-3.276,1.75-4.846
						c-0.24-0.015-0.494-0.015-0.793-0.015c-0.748,0-1.87-0.015-3.829-0.06C605.113,364.125,605.861,366.055,606.624,367.76z
						 M608.194,340.074c-0.015-0.015-0.045-0.015-0.075-0.015c-0.03,0-0.075,0-0.12,0.015h0.015
						C608.075,340.074,608.134,340.074,608.194,340.074z M606.115,374.431c0,0.015,0,0.015,0.015,0.015c0.015,0,0.03,0,0.045-0.015
						C606.145,374.431,606.13,374.431,606.115,374.431z M600.626,359.772c-2.423,3.44-4.173,6.94-5.998,10.665
						c-1.406,2.842-2.857,5.759-4.682,8.795l-0.015,0.03l-0.045,0.03c-0.015,0-0.449,0.239-0.913,0.239
						c-0.149,0-0.299-0.015-0.434-0.075c-0.643-0.254-0.673-0.853-0.673-0.883v-0.045l0.015-0.044
						c3.769-7.419,16.812-31.336,20.058-36.152c-0.06-0.015-0.12-0.015-0.194-0.015c-0.09,0-0.194,0-0.314,0l-0.284,0.015
						c-0.299,0.015-3.515,0.808-6.357,1.511c-3.784,0.942-6.103,1.511-6.432,1.511l-0.254,0.015
						c-0.149,0.015-0.284,0.015-0.419,0.015c-0.808,0-1.406-0.239-2.094-1.481l-0.105-0.194l0.195-0.06
						c3.126-1.047,12.22-3.62,16.168-3.754c0.09,0,0.18,0,0.27,0c1.51,0,2.243,0.553,2.288,1.765
						c0.075,2.214-4.143,8.646-6.671,12.489c-0.912,1.391-1.78,2.708-1.825,2.902c0.075,2.214,4.054,2.453,5.773,2.453
						c0.434,0,0.703-0.015,0.703-0.015c0.165-0.015,0.299-0.015,0.434-0.015c1.032,0,1.646-0.015,2.663-1.795
						c0.194-0.344,0.523-0.972,0.942-1.78c0.837-1.615,1.929-3.709,2.797-5.13c-0.554,0.493-1.302,1.122-2.02,1.137
						c-0.075,0-0.479-0.03-0.494-0.778c-0.045-1.137,3.575-4.009,6.985-6.596c0.568-0.434,1.018-0.793,1.167-0.913
						c0.029-0.015,0.598-0.418,1.077-0.418c0.164,0,0.299,0.044,0.418,0.134c0.075,0.06,0.135,0.105,0.18,0.15
						c0.299,0.194,0.329,0.284,0.344,0.837c0.016,0.464-0.808,1.601-2.542,3.934c-2.184,2.932-5.16,6.94-6.687,10.44
						c0.075,0,0.165,0,0.284-0.015c0.255-0.015,0.629-0.03,1.197-0.03c0.613,0,1.346,0.03,2.139,0.075l0.299,0.03l-0.149,0.239
						c-0.703,1.152-2.243,1.301-3.47,1.436c-0.733,0.075-1.406,0.135-1.616,0.404c-0.718,0.942-2.049,4.413-3.216,7.479
						c-1.854,4.876-2.468,6.282-2.902,6.297h-0.09c-0.688,0-0.763-0.359-1.346-3.261c-0.195-0.972-0.449-2.244-0.793-3.889
						C603.842,366.758,601.269,361.134,600.626,359.772z"/>
					<path fill="#FFFFFF" d="M611.186,371.379c1.287,0.299,2.124,1.466,1.975,2.663c-0.015,0.089-0.015,0.179-0.045,0.269
						c-0.239,1.092-1.242,1.854-2.423,1.854c-0.194,0-0.389-0.03-0.583-0.075c-0.643-0.134-1.197-0.508-1.571-1.032
						c-0.224-0.314-0.359-0.673-0.404-1.062c0-0.015,0.015-0.015,0-0.03c0.27-0.554,0.568-1.257,0.927-2.154v-0.015
						c0.419-0.299,0.958-0.479,1.526-0.479C610.782,371.32,610.976,371.334,611.186,371.379z M611.949,374.042
						c0.149-0.644-0.314-1.316-1.032-1.481c-0.12-0.03-0.225-0.045-0.329-0.045c-0.613,0-1.122,0.389-1.256,0.927
						c-0.149,0.644,0.314,1.316,1.032,1.481c0.12,0.015,0.225,0.03,0.329,0.03C611.305,374.954,611.814,374.58,611.949,374.042z"/>
					<path d="M610.856,372.726c-0.104-0.015-0.179-0.03-0.269-0.03c-0.015,0-0.03,0-0.045,0.015c0.03,0,0.06,0,0.09,0
						C610.707,372.71,610.767,372.71,610.856,372.726z M610.917,372.561c0.718,0.165,1.182,0.837,1.032,1.481
						c-0.135,0.538-0.644,0.912-1.257,0.912c-0.104,0-0.209-0.015-0.329-0.03c-0.718-0.165-1.181-0.837-1.032-1.481
						c0.135-0.538,0.643-0.927,1.256-0.927C610.692,372.516,610.797,372.531,610.917,372.561z"/>
					<path fill="#FFFFFF" d="M610.856,372.726c-0.089-0.015-0.149-0.015-0.224-0.015c-0.03,0-0.06,0-0.09,0
						c0.015-0.015,0.03-0.015,0.045-0.015C610.677,372.696,610.752,372.71,610.856,372.726z"/>
					<path fill="#FFFFFF" d="M608.06,361.657c0.299,0,0.553,0,0.793,0.015c-0.494,1.57-1.137,3.23-1.75,4.846
						c-0.165,0.418-0.314,0.822-0.479,1.241c-0.763-1.705-1.511-3.635-2.393-6.163C606.19,361.642,607.312,361.657,608.06,361.657z
						 M606.579,364.499c0.209-0.539,0.404-1.092,0.599-1.645c-0.344,0-0.748,0-1.227-0.015
						C606.175,363.437,606.37,363.991,606.579,364.499z"/>
					<path fill="#FFFFFF" d="M609.062,371.813c-0.359,0.897-0.658,1.601-0.927,2.154c-0.045-0.254-0.03-0.539,0.03-0.808
						C608.299,372.606,608.613,372.127,609.062,371.813z"/>
					<path fill="#FFFFFF" d="M608.12,340.059c0.03,0,0.06,0,0.075,0.015c-0.06,0-0.12,0-0.18,0H608
						C608.044,340.059,608.089,340.059,608.12,340.059z"/>
					<path fill="#FFFFFF" d="M606.175,374.431c-0.015,0.015-0.03,0.015-0.045,0.015c-0.015,0-0.015,0-0.015-0.015
						C606.13,374.431,606.145,374.431,606.175,374.431z"/>
					<path d="M591.158,447.931l5.818,14.808h-3.291l-1.271-3.396h-6.013l-1.286,3.396h-3.081l5.773-14.808H591.158z M591.577,457.01
						l-2.139-6.103h-0.045l-2.139,6.103H591.577z"/>
					<path fill="#FFFFFF" d="M591.696,369.943l-0.015,0.254l-0.075,0.194c-0.418,1.137-1.48,2.423-2.977,4.203
						c-0.075,0.09-0.149,0.194-0.239,0.284c0.883-1.675,1.93-3.665,3.096-5.818C591.637,369.345,591.696,369.645,591.696,369.943z"
						/>
					<path fill="#FFFFFF" d="M591.487,369.046c0,0,0.015,0,0,0.015c-1.167,2.154-2.213,4.143-3.096,5.818c0,0,0,0.015-0.015,0.015
						c-1.915,2.318-4.442,5.415-6.417,9.318c-0.03,0.06-0.06,0.12-0.104,0.179c-0.12,0.209-0.329,0.554-0.673,1.077l-0.075,0.12
						c-0.209,0.329-0.463,0.718-0.733,1.167l0.195-2.229c-0.06-0.03-0.12-0.045-0.18-0.06v-0.015
						c0.224-0.359,0.389-0.598,0.464-0.733c0.015-0.015,0.03-0.03,0.03-0.06c2.124-4.188,4.846-7.449,6.82-9.827
						c1.361-1.63,2.423-2.917,2.767-3.859l0.015-0.03v-0.03c0-0.748-0.808-0.748-1.062-0.748c-0.135,0-0.284,0.015-0.419,0.015
						c-0.089,0-0.179,0.015-0.269,0.015c-0.359,0.015-2.378,0.658-5.205,1.57c-1.601,0.523-3.111,1.017-3.365,1.062
						c-0.209,0.03-0.374,0.045-0.509,0.045c-0.239,0-0.314-0.045-0.329-0.075c-0.12-0.284,1.002-1.376,1.615-1.975
						c0.883-0.867,1.242-1.241,1.242-1.511c-0.03-0.493-0.06-1.496-0.793-1.496c-0.12,0-0.239,0.03-0.389,0.09h-0.03l-0.015,0.03
						c-0.239,0.225-1.915,1.361-3.59,2.438c-1.675,1.077-3.365,2.124-3.649,2.154c-0.688,0-1.81-0.434-1.825-0.882
						c-0.03-0.868,1.57-3.111,2.528-4.457c0.463-0.644,0.792-1.122,0.882-1.332c0.12-0.224,0.673-1.361,0.314-1.839
						c-0.254-0.344-0.598-0.539-0.987-0.539c-0.284,0-0.583,0.104-0.912,0.299c-0.015,0-0.06,0.03-0.135,0.09
						c-4.846,3.605-10.53,7.479-11.891,7.523l-0.269,0.015c0,0-0.015,0-0.03,0c-0.015-0.015-0.03-0.045-0.045-0.06l-0.03-1.047
						c0-0.299,0.897-1.72,1.555-2.737c1.092-1.735,1.616-2.587,1.601-2.917c-0.03-0.628-0.299-0.748-0.449-0.778
						c-0.12-0.075-0.449-0.254-0.972-0.254h-0.09c-0.868,0.03-2.318,1.466-3.979,3.141c-1.825,1.825-3.904,3.889-5.13,3.889
						c-0.374-0.015-0.598-0.09-0.673-0.194c-0.015-0.03-0.075-0.09-0.03-0.254c0.06-0.299,0.329-0.613,0.344-0.613l4.696-5.579
						c0.165-0.269,0.374-0.823-0.044-1.256c-0.209-0.209-0.374-0.314-0.569-0.314c-0.089,0-0.179,0.03-0.284,0.044
						c-0.104,0.03-0.239,0.045-0.418,0.06c-0.284,0-0.913,0.494-2.333,1.615c-2.303,1.825-5.803,4.607-7.778,4.667l-0.149,0.015
						c-0.09,0-0.165,0-0.239,0c-0.12,0-0.15-0.015-0.15-0.015s-0.03-0.075,0.045-0.389c1.765-3.934,6.073-6.566,9.872-8.899
						c0.613-0.374,1.211-0.748,1.78-1.107c0.015,0,0.09-0.03,0.18-0.03c0.165,0,0.224,0.09,0.239,0.104
						c0.075,0.12,0.165,0.434-0.165,1.301c-0.18,0.479-0.27,0.733-0.299,0.868c-0.045,0.03-0.075,0.075-0.09,0.104
						c-0.015,0.03-0.149,0.225-0.075,0.494c0.06,0.225,0.27,0.419,0.583,0.554c0.179,0.089,0.359,0.134,0.523,0.134
						c0.539,0,0.808-0.404,0.823-0.418c0.523-1.107,0.763-2.468,0.733-3.201c-0.015-0.463-0.09-0.853-0.254-1.137v-0.015
						l0.913-0.464l0.165-0.075c0.254,0.523,0.374,1.107,0.389,1.645c0.03,0.868-0.225,2.423-0.853,3.754l-0.045,0.09l-0.06,0.09
						c-0.209,0.299-0.568,0.628-1.062,0.808c0.089,0.598-0.075,1.196-0.389,1.645l-0.03,0.045l-0.045,0.06l-0.763,0.912
						c2.079-2.064,3.335-3.23,4.592-3.275l0.135-0.015c0.643,0,1.137,0.194,1.436,0.359c0.568,0.195,1.137,0.763,1.167,1.825
						c0.03,0.688-0.314,1.301-1.795,3.649c-0.209,0.329-0.539,0.853-0.823,1.316c1.87-1.032,5.295-3.291,9.827-6.656l0.09-0.06
						l0.075-0.075l0.06-0.015c0.508-0.314,1.017-0.464,1.525-0.464c0.778,0,1.466,0.359,1.959,1.002
						c0.688,0.912,0.27,2.184-0.194,3.096c-0.149,0.314-0.434,0.718-1.002,1.511c-0.464,0.644-1.705,2.408-2.139,3.335
						c0.09,0.03,0.195,0.06,0.284,0.075c1.167-0.583,6.118-3.844,6.641-4.293l0.165-0.135l0.18-0.075
						c0.299-0.135,0.583-0.194,0.867-0.194c0.703,0,1.9,0.344,2.004,2.677c0.015,0.539-0.239,0.972-0.703,1.496
						c0.165-0.06,0.329-0.104,0.479-0.149c4.083-1.331,5.055-1.615,5.534-1.645c0.075,0,0.149,0,0.254-0.015
						c0.15,0,0.314-0.015,0.464-0.015C590.56,367.954,591.203,368.433,591.487,369.046z M556.502,360.371
						c-0.03-0.24-0.015-0.479,0.03-0.658c-2.872,1.75-5.998,3.709-7.942,6.207c1.72-0.942,3.874-2.647,5.205-3.709
						C555.32,360.999,555.949,360.505,556.502,360.371z"/>
					<path d="M581.391,366.997c0.06,0,0.09,0,0.12,0.015c-0.03-0.015-0.06-0.03-0.104-0.03L581.391,366.997z M560.122,356.198
						c0.165,0.284,0.239,0.673,0.254,1.137c0.03,0.733-0.209,2.094-0.733,3.201c-0.015,0.015-0.284,0.418-0.823,0.418
						c-0.165,0-0.344-0.045-0.523-0.134c-0.314-0.135-0.523-0.329-0.583-0.554c-0.075-0.269,0.06-0.463,0.075-0.494
						c0.015-0.03,0.045-0.075,0.09-0.104c0.03-0.135,0.12-0.389,0.299-0.868c0.329-0.867,0.239-1.182,0.165-1.301
						c-0.015-0.015-0.075-0.104-0.239-0.104c-0.09,0-0.165,0.03-0.18,0.03c-0.568,0.359-1.167,0.733-1.78,1.107
						c-3.799,2.333-8.107,4.966-9.872,8.899c-0.075,0.314-0.045,0.389-0.045,0.389s0.03,0.015,0.15,0.015c0.075,0,0.149,0,0.239,0
						l0.149-0.015c1.975-0.06,5.475-2.842,7.778-4.667c1.421-1.122,2.049-1.615,2.333-1.615c0.179-0.015,0.314-0.03,0.418-0.06
						c0.105-0.015,0.195-0.044,0.284-0.044c0.195,0,0.359,0.104,0.569,0.314c0.418,0.434,0.209,0.987,0.044,1.256l-4.696,5.579
						c-0.015,0-0.284,0.314-0.344,0.613c-0.045,0.165,0.015,0.224,0.03,0.254c0.075,0.104,0.299,0.179,0.673,0.194
						c1.227,0,3.306-2.064,5.13-3.889c1.66-1.675,3.111-3.111,3.979-3.141h0.09c0.523,0,0.853,0.18,0.972,0.254
						c0.149,0.03,0.419,0.15,0.449,0.778c0.015,0.329-0.508,1.182-1.601,2.917c-0.658,1.017-1.555,2.438-1.555,2.737l0.03,1.047
						c0.015,0.015,0.03,0.045,0.045,0.06c0.015,0,0.03,0,0.03,0l0.269-0.015c1.361-0.045,7.045-3.918,11.891-7.523
						c0.075-0.06,0.12-0.09,0.135-0.09c0.329-0.194,0.628-0.299,0.912-0.299c0.389,0,0.733,0.194,0.987,0.539
						c0.359,0.479-0.194,1.615-0.314,1.839c-0.09,0.209-0.419,0.688-0.882,1.332c-0.958,1.346-2.558,3.589-2.528,4.457
						c0.015,0.449,1.137,0.882,1.825,0.882c0.284-0.03,1.974-1.077,3.649-2.154c1.675-1.077,3.351-2.213,3.59-2.438l0.015-0.03h0.03
						c0.149-0.06,0.269-0.09,0.389-0.09c0.733,0,0.763,1.002,0.793,1.496c0,0.27-0.359,0.644-1.242,1.511
						c-0.613,0.599-1.735,1.69-1.615,1.975c0.015,0.03,0.09,0.075,0.329,0.075c0.135,0,0.299-0.015,0.509-0.045
						c0.254-0.045,1.765-0.539,3.365-1.062c2.827-0.912,4.846-1.556,5.205-1.57c0.09,0,0.18-0.015,0.269-0.015
						c0.135,0,0.284-0.015,0.419-0.015c0.254,0,1.062,0,1.062,0.748v0.03l-0.015,0.03c-0.344,0.942-1.406,2.229-2.767,3.859
						c-1.974,2.378-4.696,5.639-6.82,9.827c0,0.03-0.015,0.045-0.03,0.06c-0.075,0.135-0.24,0.374-0.464,0.733
						c-0.045-0.015-0.104-0.045-0.165-0.06c0.239-0.359,0.404-0.613,0.479-0.748l-2.094-0.015c-0.03,0.06-0.075,0.105-0.105,0.165
						c-0.06-0.015-0.12-0.03-0.179-0.045c0.045-0.075,0.09-0.135,0.134-0.209c1.975-3.096,3.844-5.938,5.28-8.017
						c0.149-0.224,0.299-0.434,0.434-0.628c0.673-0.958,1.092-1.541,1.451-1.989c0.045-0.06,0.09-0.12,0.12-0.15
						c0.015,0,0.015,0,0.015-0.015c-0.06,0.015-0.135,0.015-0.239,0.015c-0.314,0.015-1.481,0.314-2.603,0.599
						c-1.256,0.314-2.438,0.613-2.782,0.628h-0.314c-0.239,0.015-0.479,0.03-0.703,0.03c-0.553,0-1.182-0.06-1.57-0.479
						c-0.27-0.269-0.404-0.658-0.419-1.196c-1.211,0.553-3.455,1.346-4.098,1.376c-0.06,0-0.12,0-0.18,0
						c-1.675,0-3.515-0.868-3.575-2.752c-0.015-0.493,0.225-1.106,0.449-1.705c0.09-0.239,0.18-0.479,0.254-0.703v-0.015
						l0.015-0.015c0.03-0.045,0.06-0.104,0.09-0.149c-0.628,0.523-6.073,4.622-8.167,4.697c-0.06,0-0.105,0-0.165,0
						c-1.376,0-2.229-0.763-2.273-2.034c-0.015-0.314-0.075-0.763-0.135-1.197c-0.045-0.329-0.09-0.628-0.12-0.853
						c-0.135,0.03-0.329,0.104-0.464,0.194c-0.165,0.12-0.404,0.329-0.688,0.568c-1.151,0.972-3.081,2.588-4.308,2.588
						c-0.06,0-0.104-0.015-0.165-0.015c-0.867-0.104-1.496-0.404-1.87-0.897c-0.508-0.673-0.434-1.556-0.284-2.408l0.03-0.149
						c0.03-0.209,0.075-0.449,0.075-0.554c-0.374,0.06-1.585,0.628-2.573,1.077c-1.496,0.688-2.423,1.122-2.767,1.122
						c-0.12,0.015-0.225,0.015-0.329,0.015c-0.105,0.015-0.194,0.015-0.284,0.015c-0.27,0-0.539-0.045-1.002-0.299l-0.03-0.015
						l-0.015-0.03c-0.105-0.12-0.195-0.194-0.299-0.269c-0.329-0.225-0.553-0.449-0.583-1.332c-0.09-2.587,1.9-5.684,4.996-7.777
						c-1.271-0.913-2.797-1.765-4.996-2.797c-1.69,2.333-3.665,5.056-5.699,7.688c-0.299,0.389-0.583,0.763-0.867,1.137l-0.06,0.075
						c-0.479,0.598-0.957,1.211-1.451,1.795c-0.464,0.583-0.927,1.181-1.421,1.75c-0.868,1.047-1.735,2.049-2.558,2.976
						c-0.568,0.644-1.167,1.301-1.825,2.004c-0.449,0.464-0.912,0.942-1.541,1.571c-0.404,0.404-0.792,0.792-1.196,1.182
						c-0.359,0.344-0.733,0.688-1.092,1.017c-0.523,0.508-1.077,0.987-1.57,1.406c-0.254,0.224-0.508,0.434-0.793,0.673
						c-0.224,0.195-0.463,0.389-0.688,0.568c-0.508,0.419-1.077,0.838-1.645,1.287h-0.015h-4.113
						c0.404-0.27,0.808-0.539,1.197-0.808l0.239-0.18c0.209-0.149,0.404-0.299,0.613-0.449c0.374-0.269,0.733-0.553,1.092-0.837
						c0.583-0.464,1.017-0.823,1.421-1.182c2.992-2.543,6.103-5.759,9.498-9.842c1.421-1.69,2.857-3.5,4.427-5.549l0.06-0.075
						c0.538-0.703,1.077-1.406,1.6-2.094c0.225-0.314,0.449-0.613,0.673-0.912l0.508-0.673l0.075-0.12
						c0.449-0.583,0.883-1.167,1.301-1.75c0.15-0.194,0.284-0.359,0.404-0.539l0.135-0.179c0.239-0.314,0.479-0.643,0.703-0.958
						c-5.893-2.603-12.699-4.233-17.799-4.263c-0.808,0.12-1.466,0.18-1.959,0.18c-0.389,0-0.598-0.03-0.733-0.06
						c-0.06-0.015-0.104-0.015-0.134-0.015c-7.718,1.212-11.173,4.039-14.823,7.03c-0.942,0.778-1.93,1.585-2.977,2.348
						c-0.015,0.015-1.271,1.137-6.596,8.152c-0.942,1.241-2.244,4.682-2.199,7.912c0,0.135,0,0.284,0.015,0.404l0.015,0.15
						c0.015,0.09,0.015,0.179,0.03,0.284c0.015,0.134,0.045,0.269,0.089,0.418c0.105,0.479,0.254,0.958,0.464,1.421
						c0.06,0.164,0.135,0.299,0.209,0.463c0.075,0.149,0.149,0.299,0.239,0.449c0.06,0.12,0.135,0.239,0.239,0.404
						c0.12,0.18,0.239,0.359,0.359,0.539c0.075,0.104,0.165,0.224,0.27,0.329h-2.887h-0.015c0-0.015-0.015-0.015-0.015-0.03
						c-0.179-0.299-0.329-0.568-0.449-0.808c-0.075-0.149-0.149-0.299-0.239-0.479c-0.06-0.149-0.12-0.284-0.165-0.419
						c-0.045-0.104-0.089-0.209-0.12-0.314l-0.03-0.075c-0.06-0.149-0.104-0.299-0.149-0.449l-0.03-0.075
						c-0.044-0.18-0.089-0.344-0.12-0.523l-0.015-0.06c-0.03-0.09-0.045-0.194-0.06-0.284c-0.03-0.12-0.045-0.254-0.06-0.374
						c-0.015-0.06-0.015-0.134-0.015-0.179c-0.03-0.209-0.045-0.419-0.06-0.643c-0.075-2.304,1.152-6.208,2.035-7.718
						c7.03-12.28,17.784-19.893,28.763-20.357c0.942-0.03,1.84-0.06,2.692-0.06c7.508,0,10.679,1.57,13.76,3.081
						c1.152,0.568,2.333,1.152,3.74,1.66l0.942-1.286c2.647-3.56,3.575-4.831,6.746-10.096c-1.9,0.628-8.287,2.244-9.453,2.289
						c-0.149,0-0.284,0-0.419,0c-4.876,0-8.256-3.051-8.406-7.613c-0.03-0.673,0.03-1.406,0.269-2.902v-0.03l0.015-0.03
						c0.314-0.658,0.673-0.987,1.062-0.987c0.329,0,0.643,0.254,0.927,0.778l0.015,0.045v0.045c-0.075,0.837-0.18,1.376-0.284,1.81
						c-0.075,0.389-0.135,0.658-0.12,0.942c0.089,2.797,2.483,5.803,6.162,5.803c0.06,0,0.12,0,0.194,0
						c2.977-0.104,6.387-1.167,9.678-2.199c1.002-0.314,2.034-0.628,2.991-0.897c0.135-0.105,1.017-1.167,2.019-2.394
						c4.009-4.861,12.34-15.002,15.526-15.555c0.419-0.075,0.808-0.12,1.152-0.12c0.808,0,1.391,0.209,1.75,0.628
						c0.329,0.389,0.434,0.942,0.314,1.646c-0.314,2.004-4.592,7.718-4.786,7.957c-2.573,3.44-5.564,4.891-8.466,6.297
						c-1.9,0.913-3.695,1.78-5.34,3.171c-2.782,2.349-4.921,5.833-7,9.184c-0.987,1.585-1.915,3.096-2.917,4.472
						c0.973,0.628,1.9,1.092,2.872,1.601c0.897,0.463,1.81,0.942,2.827,1.541c0.464-0.284,1.002-0.658,1.556-1.047
						c1.825-1.286,3.904-2.722,5.624-2.797c0.104,0,0.194,0,0.284,0c1.062,0,1.705,0.27,2.034,0.883V356.198z M533.168,334.57
						c-0.015,0-0.045-0.015-0.06-0.015l-0.015,0.015C533.124,334.57,533.154,334.57,533.168,334.57z M571.354,324.877
						c-0.015,0-0.045-0.015-0.149-0.015c-0.389,0-1.062,0.225-1.182,0.284c-5.146,3.709-7.868,7.284-11.532,12.609
						c5.759-2.468,9.857-6.551,12.833-12.773C571.354,324.922,571.354,324.877,571.354,324.877z"/>
					<path fill="#FFFFFF" d="M585.758,372.741c0,0.015,0,0.015-0.015,0.015c-0.03,0.03-0.075,0.09-0.12,0.15
						c-0.359,0.449-0.778,1.032-1.451,1.989c-0.135,0.194-0.284,0.404-0.434,0.628c-1.436,2.079-3.306,4.921-5.28,8.017
						c-0.044,0.075-0.089,0.135-0.134,0.209c-0.404-0.12-0.808-0.224-1.212-0.314c0.09-0.18,0.209-0.359,0.329-0.539
						c1.99-3.111,3.874-5.983,5.295-8.047c0.06-0.09,0.12-0.18,0.18-0.254c-1.571,0.404-2.333,0.583-2.722,0.583l-0.329,0.015
						c-0.254,0.015-0.509,0.03-0.748,0.03c-0.763,0-1.72-0.105-2.453-0.853c-0.12-0.12-0.225-0.254-0.314-0.404
						c-1.122,0.434-2.573,0.927-3.275,0.957c-0.075,0-0.15,0-0.225,0c-2.213,0-4.502-1.241-4.756-3.604
						c-1.989,1.346-4.592,2.901-6.132,2.946c-0.06,0.015-0.135,0.015-0.209,0.015c-1.989,0-3.38-1.256-3.47-3.126
						c-1.6,1.301-3.141,2.378-4.517,2.378c-0.104,0-0.209,0-0.299-0.015c-1.212-0.135-2.124-0.599-2.692-1.376
						c-0.464-0.613-0.628-1.286-0.644-1.944c-0.254,0.12-0.479,0.225-0.643,0.299c-1.989,0.912-2.677,1.211-3.23,1.227
						c-0.09,0-0.165,0.015-0.239,0.015h-0.03c-0.149,0.015-0.269,0.015-0.389,0.015c-0.523,0-0.972-0.12-1.601-0.449l-0.224-0.135
						l-0.15-0.194c-0.03-0.015-0.06-0.045-0.075-0.06c-0.748-0.523-1.047-1.167-1.077-2.273c-0.105-2.572,1.48-5.489,4.098-7.748
						c-0.718-0.434-1.541-0.868-2.513-1.346c-1.541,2.124-3.306,4.532-5.13,6.895c-0.284,0.389-0.583,0.763-0.883,1.137L538,367.655
						c-0.494,0.628-0.973,1.226-1.481,1.854c-0.464,0.583-0.942,1.167-1.421,1.72c-0.882,1.092-1.765,2.109-2.588,3.021
						c-0.568,0.643-1.182,1.316-1.839,2.019c-0.449,0.464-0.928,0.957-1.571,1.601c-0.404,0.404-0.808,0.808-1.211,1.196
						c-0.359,0.359-0.733,0.703-1.092,1.032c-0.509,0.479-1.032,0.942-1.496,1.346l-0.12,0.09c-0.254,0.224-0.509,0.434-0.808,0.688
						c-0.239,0.194-0.463,0.389-0.703,0.583c-0.15,0.12-0.284,0.225-0.434,0.344h-1.974c0.568-0.449,1.137-0.868,1.645-1.287
						c0.225-0.179,0.464-0.374,0.688-0.568c0.285-0.239,0.539-0.449,0.793-0.673c0.494-0.419,1.047-0.897,1.57-1.406
						c0.359-0.329,0.733-0.673,1.092-1.017c0.404-0.389,0.792-0.778,1.196-1.182c0.628-0.628,1.092-1.107,1.541-1.571
						c0.658-0.703,1.256-1.361,1.825-2.004c0.823-0.927,1.69-1.929,2.558-2.976c0.494-0.569,0.957-1.167,1.421-1.75
						c0.494-0.583,0.972-1.197,1.451-1.795l0.06-0.075c0.284-0.374,0.568-0.748,0.867-1.137c2.034-2.632,4.009-5.354,5.699-7.688
						c2.199,1.032,3.725,1.885,4.996,2.797c-3.096,2.094-5.086,5.19-4.996,7.777c0.03,0.883,0.254,1.107,0.583,1.332
						c0.104,0.075,0.194,0.149,0.299,0.269l0.015,0.03l0.03,0.015c0.464,0.254,0.733,0.299,1.002,0.299c0.09,0,0.179,0,0.284-0.015
						c0.104,0,0.209,0,0.329-0.015c0.344,0,1.271-0.434,2.767-1.122c0.987-0.449,2.199-1.017,2.573-1.077
						c0,0.105-0.045,0.344-0.075,0.554l-0.03,0.149c-0.149,0.853-0.224,1.735,0.284,2.408c0.374,0.494,1.002,0.793,1.87,0.897
						c0.06,0,0.105,0.015,0.165,0.015c1.227,0,3.156-1.616,4.308-2.588c0.284-0.239,0.523-0.449,0.688-0.568
						c0.135-0.09,0.329-0.165,0.464-0.194c0.03,0.224,0.075,0.523,0.12,0.853c0.06,0.434,0.12,0.882,0.135,1.197
						c0.045,1.271,0.897,2.034,2.273,2.034c0.06,0,0.104,0,0.165,0c2.094-0.075,7.539-4.173,8.167-4.697
						c-0.03,0.045-0.06,0.104-0.09,0.149l-0.015,0.015v0.015c-0.075,0.224-0.165,0.463-0.254,0.703
						c-0.224,0.599-0.464,1.212-0.449,1.705c0.06,1.885,1.899,2.752,3.575,2.752c0.06,0,0.12,0,0.18,0
						c0.643-0.03,2.887-0.823,4.098-1.376c0.015,0.538,0.149,0.927,0.419,1.196c0.389,0.419,1.017,0.479,1.57,0.479
						c0.225,0,0.464-0.015,0.703-0.03h0.314c0.344-0.015,1.526-0.314,2.782-0.628c1.122-0.284,2.289-0.583,2.603-0.599
						C585.624,372.755,585.699,372.755,585.758,372.741z"/>
					<path fill="#6D2B90" d="M581.839,404.226v28.209c-7.882,2.185-13.775,2.334-18.053,2.334c-12.43,0-26.803-6.836-26.803-26.041
						c0-19.115,12.37-26.459,29.48-26.459c2.363,0,6.701,0.224,10.649,1.167c-2.797,4.382-4.532,7.254-5.594,9.154h-0.015
						c-1.227-0.209-2.348-0.284-3.305-0.284c-10.082,0-18.383,4.577-18.383,16.438c0,9.961,6.492,15.989,15.585,15.989
						c1.675,0,3.276-0.3,4.413-0.868v-10.036h-7.284v-9.603H581.839z"/>
					<path fill="#FFFFFF" d="M581.51,367.012c-0.03-0.015-0.06-0.015-0.12-0.015l0.015-0.015
						C581.451,366.982,581.48,366.997,581.51,367.012z"/>
					<path d="M578.609,383.629l2.094,0.015c-0.075,0.134-0.239,0.389-0.479,0.748c-0.553-0.224-1.122-0.418-1.72-0.583v-0.015
						C578.534,383.734,578.579,383.689,578.609,383.629z"/>
					<path fill="#FFFFFF" d="M580.568,384.527l-0.195,2.229c-0.015,0-0.015,0.015-0.015,0.03c-1.182,1.854-2.812,4.517-4.173,7.075
						c-0.389-0.15-0.763-0.284-1.151-0.404c1.72-3.291,3.904-6.731,5.055-8.526c0.105-0.165,0.209-0.329,0.299-0.463
						C580.449,384.482,580.508,384.497,580.568,384.527z"/>
					<path d="M580.389,384.452v0.015c-0.09,0.134-0.194,0.299-0.299,0.463c-1.151,1.795-3.335,5.235-5.055,8.526
						c-0.045-0.03-0.105-0.045-0.15-0.06c1.87-3.59,4.308-7.359,5.34-9.004C580.284,384.407,580.344,384.437,580.389,384.452z"/>
					<path fill="#6D2B90" d="M580.359,386.786l-0.793,8.794c-1.092-0.703-2.229-1.271-3.38-1.72
						C577.547,391.303,579.177,388.64,580.359,386.786z"/>
					<path d="M578.504,383.809c0.599,0.165,1.167,0.359,1.72,0.583c-1.032,1.646-3.47,5.415-5.34,9.004h-0.015
						c-0.658-0.209-1.301-0.389-1.915-0.539C574.361,390.435,576.41,387.1,578.504,383.809z"/>
					<path d="M578.504,383.794v0.015c-2.094,3.291-4.143,6.626-5.549,9.049c-0.015,0-0.015,0-0.015,0
						c-0.06-0.015-0.12-0.015-0.165-0.03c1.57-2.737,3.874-6.447,5.549-9.079C578.384,383.764,578.444,383.779,578.504,383.794z"/>
					<path fill="#FFFFFF" d="M577.113,383.435c0.404,0.09,0.808,0.194,1.212,0.314c-1.675,2.632-3.979,6.342-5.549,9.079
						c-0.434-0.09-0.853-0.18-1.256-0.239C572.581,390.689,574.316,387.817,577.113,383.435z"/>
					<path fill="#FFFFFF" d="M575.034,393.457c0.389,0.12,0.763,0.254,1.151,0.404c-0.823,1.555-1.541,3.081-1.989,4.367
						l-0.06,0.165l-0.389,1.137l-1.137-0.374l-0.165-0.06c-0.224-0.09-0.419-0.135-0.643-0.18c-0.703-0.149-2.004-0.449-2.064-2.423
						c-0.015-0.254-0.03-0.733,1.765-3.904h0.015c0.404,0.06,0.823,0.149,1.256,0.239c-1.107,1.87-1.854,3.291-1.84,3.62
						c0.045,1.047,0.479,1.137,1.137,1.287c0.225,0.06,0.479,0.104,0.763,0.209l0.165,0.06l0.06-0.164
						C573.508,396.537,574.211,395.012,575.034,393.457z"/>
					<path d="M574.884,393.396c0.045,0.015,0.105,0.03,0.15,0.06c-0.823,1.555-1.526,3.081-1.975,4.382l-0.06,0.164l-0.165-0.06
						c-0.284-0.104-0.539-0.149-0.763-0.209c-0.658-0.149-1.092-0.239-1.137-1.287c-0.015-0.329,0.733-1.75,1.84-3.62
						c0.045,0.015,0.104,0.015,0.165,0.03c-1.107,1.93-1.825,3.276-1.825,3.575c0.045,1.226,0.598,0.942,1.78,1.346
						c0.449-1.302,1.152-2.827,1.975-4.383H574.884z"/>
					<path fill="#FFFFFF" d="M574.032,322.484c0.389,0.463,0.808,1.286,0.598,2.632c-0.344,2.124-3.918,7.03-5.01,8.496
						c-2.767,3.68-6.028,5.25-8.915,6.641c-1.825,0.897-3.56,1.735-5.085,3.021c-2.633,2.229-4.727,5.624-6.761,8.899
						c-0.748,1.197-1.466,2.348-2.199,3.455c0.539,0.314,1.092,0.598,1.645,0.882l0.075,0.03c0.703,0.374,1.421,0.748,2.199,1.182
						c0.299-0.195,0.613-0.404,0.913-0.613c1.959-1.376,4.188-2.932,6.282-3.006c0.104,0,0.209,0,0.314,0
						c1.75,0,2.647,0.673,3.111,1.541l-0.165,0.075l-0.913,0.464c-0.329-0.613-0.972-0.883-2.034-0.883c-0.09,0-0.18,0-0.284,0
						c-1.72,0.075-3.799,1.511-5.624,2.797c-0.553,0.389-1.092,0.763-1.556,1.047c-1.017-0.599-1.929-1.077-2.827-1.541
						c-0.972-0.509-1.899-0.973-2.872-1.601c1.002-1.376,1.93-2.887,2.917-4.472c2.079-3.351,4.218-6.835,7-9.184
						c1.645-1.391,3.44-2.258,5.34-3.171c2.901-1.406,5.893-2.856,8.466-6.297c0.194-0.239,4.472-5.953,4.786-7.957
						c0.12-0.703,0.015-1.257-0.314-1.646c-0.359-0.419-0.942-0.628-1.75-0.628c-0.344,0-0.733,0.045-1.152,0.12
						c-3.186,0.553-11.517,10.694-15.526,15.555c-1.002,1.227-1.884,2.289-2.019,2.394c-0.957,0.269-1.989,0.583-2.991,0.897
						c-3.291,1.032-6.701,2.094-9.678,2.199c-0.075,0-0.134,0-0.194,0c-3.679,0-6.073-3.006-6.162-5.803
						c-0.015-0.284,0.044-0.553,0.12-0.942c0.104-0.434,0.209-0.972,0.284-1.81v-0.045l-0.015-0.045
						c-0.284-0.523-0.598-0.778-0.927-0.778c-0.389,0-0.748,0.329-1.062,0.987l-0.015,0.03v0.03
						c-0.239,1.496-0.299,2.229-0.269,2.902c0.149,4.562,3.53,7.613,8.406,7.613c0.135,0,0.27,0,0.419,0
						c1.167-0.045,7.553-1.66,9.453-2.289c-3.171,5.265-4.099,6.537-6.746,10.096l-0.942,1.286c-1.406-0.508-2.588-1.092-3.74-1.66
						c-3.081-1.511-6.252-3.081-13.76-3.081c-0.853,0-1.75,0.03-2.692,0.06c-10.979,0.464-21.733,8.077-28.763,20.357
						c-0.883,1.511-2.109,5.415-2.035,7.718c0.015,0.224,0.03,0.434,0.06,0.643c0,0.045,0,0.12,0.015,0.179
						c0.015,0.12,0.03,0.254,0.06,0.374c0.015,0.09,0.03,0.194,0.06,0.284l0.015,0.06c0.03,0.179,0.075,0.344,0.12,0.523l0.03,0.075
						c0.045,0.149,0.089,0.299,0.149,0.449l0.03,0.075c0.03,0.105,0.075,0.209,0.12,0.314c0.045,0.135,0.105,0.27,0.165,0.419
						c0.09,0.18,0.165,0.329,0.239,0.479c0.12,0.24,0.27,0.509,0.449,0.808c0,0.015,0.015,0.015,0.015,0.03h-1.376
						c-0.06-0.09-0.105-0.18-0.135-0.254c-0.104-0.179-0.194-0.374-0.284-0.568c-0.075-0.165-0.149-0.329-0.209-0.494
						c-0.045-0.12-0.09-0.239-0.12-0.329l-0.03-0.075c-0.06-0.165-0.12-0.344-0.165-0.508l-0.015-0.06
						c-0.075-0.209-0.12-0.419-0.149-0.598l-0.015-0.06c-0.03-0.12-0.06-0.239-0.075-0.344c-0.03-0.135-0.045-0.27-0.075-0.404
						c-0.015-0.105-0.015-0.195-0.03-0.284c-0.03-0.225-0.045-0.449-0.045-0.688c-0.09-2.588,1.256-6.761,2.184-8.361
						c7.239-12.639,18.368-20.477,29.765-20.955c0.942-0.045,1.87-0.06,2.737-0.06c7.792,0,11.098,1.63,14.299,3.201
						c0.838,0.418,1.75,0.867,2.782,1.286l0.404-0.568c2.139-2.872,3.126-4.218,5.085-7.359c-2.603,0.673-5.863,1.451-6.806,1.48
						c-0.149,0.015-0.299,0.015-0.449,0.015c-5.474,0-9.438-3.62-9.617-8.78c-0.03-0.763,0.044-1.556,0.299-3.141l0.03-0.209
						l0.075-0.179c0.673-1.376,1.541-1.675,2.154-1.675c0.553,0,1.346,0.239,2.004,1.436l0.18,0.389l-0.03,0.359
						c-0.09,0.897-0.209,1.511-0.299,1.959c-0.075,0.299-0.104,0.508-0.104,0.643c0.075,2.229,1.989,4.637,4.951,4.637h0.149
						c2.827-0.104,6.147-1.137,9.408-2.154c0.883-0.269,1.795-0.553,2.663-0.808c0.344-0.389,1.077-1.286,1.69-2.034l0.045-0.045
						c7.583-9.214,13.237-15.451,16.229-15.989c0.494-0.075,0.942-0.12,1.376-0.12C572.551,321.452,573.449,321.796,574.032,322.484
						z"/>
					<path d="M572.955,392.858c0.613,0.15,1.256,0.329,1.915,0.539c-0.823,1.556-1.526,3.081-1.975,4.383
						c-1.182-0.404-1.735-0.12-1.78-1.346c0-0.299,0.718-1.646,1.825-3.575C572.94,392.858,572.94,392.858,572.955,392.858z"/>
					<path fill="#FFFFFF" d="M568.154,328.138c-2.154,1.839-3.859,3.739-5.489,5.863
						C564.788,332.431,566.598,330.501,568.154,328.138z M571.205,324.862c0.104,0,0.134,0.015,0.149,0.015c0,0,0,0.045-0.03,0.104
						c-2.977,6.222-7.075,10.306-12.833,12.773c3.665-5.325,6.387-8.899,11.532-12.609
						C570.143,325.087,570.816,324.862,571.205,324.862z"/>
					<polygon points="546.151,460.405 546.151,462.738 537.372,462.738 537.372,447.931 546.122,447.931 546.122,450.264 
						540.348,450.264 540.348,453.914 545.628,453.914 545.628,456.247 540.348,456.247 540.348,460.405 					"/>
					<path fill="#FFFFFF" d="M541.081,357.005c-0.225,0.314-0.464,0.643-0.703,0.958l-0.135,0.179
						c-0.12,0.18-0.254,0.344-0.404,0.539c-0.418,0.583-0.853,1.167-1.301,1.75l-0.075,0.12l-0.508,0.673
						c-0.225,0.299-0.449,0.598-0.673,0.912c-0.523,0.688-1.062,1.391-1.6,2.094l-0.06,0.075c-1.57,2.049-3.006,3.859-4.427,5.549
						c-3.396,4.083-6.506,7.299-9.498,9.842c-0.404,0.359-0.837,0.718-1.421,1.182c-0.359,0.284-0.718,0.568-1.092,0.837
						c-0.209,0.149-0.404,0.299-0.613,0.449l-0.239,0.18c-0.389,0.269-0.793,0.538-1.197,0.808c0,0,0,0-0.015,0h-2.274
						c0.329-0.194,0.673-0.389,1.002-0.598l0.359-0.314h0.12c0.449-0.284,0.882-0.583,1.301-0.882l0.284-0.194
						c0.18-0.135,0.359-0.27,0.554-0.419c0.359-0.254,0.718-0.523,1.062-0.808c0.554-0.449,0.987-0.793,1.391-1.152
						c2.932-2.498,5.998-5.669,9.349-9.692c1.391-1.66,2.827-3.47,4.397-5.519l0.06-0.075c0.539-0.703,1.062-1.391,1.585-2.094
						c0.239-0.299,0.464-0.598,0.688-0.897l0.494-0.673l0.09-0.12c0.434-0.583,0.868-1.167,1.301-1.765
						c0.12-0.149,0.224-0.284,0.329-0.419c-5.37-2.184-11.308-3.53-15.84-3.575c-0.837,0.12-1.526,0.18-2.049,0.18
						c-0.404,0-0.658-0.03-0.867-0.075c-7.27,1.182-10.411,3.769-14.09,6.775c-0.927,0.763-1.899,1.556-2.947,2.333
						c-0.224,0.224-1.705,1.735-6.401,7.927c-0.823,1.092-1.99,4.263-1.959,7.194c0,0.105,0.015,0.225,0.015,0.27l0.015,0.209
						c0.015,0.044,0.015,0.089,0.03,0.149v0.03v0.03c0.015,0.09,0.03,0.195,0.06,0.314c0.09,0.404,0.224,0.808,0.389,1.182
						c0.06,0.149,0.12,0.269,0.209,0.449c0.06,0.12,0.12,0.224,0.194,0.344l0.015,0.045l0.015,0.03
						c0.044,0.075,0.089,0.165,0.194,0.314c0.104,0.165,0.209,0.329,0.299,0.449c0.075,0.12,0.165,0.224,0.27,0.359
						c1.182,1.511,2.737,2.677,4.353,3.35v1.271c-1.601-0.568-3.171-1.6-4.472-2.946c0,0-0.015,0,0-0.015v-0.972h-0.853
						c-0.105-0.105-0.195-0.225-0.27-0.329c-0.12-0.18-0.239-0.359-0.359-0.539c-0.104-0.165-0.179-0.284-0.239-0.404
						c-0.09-0.149-0.165-0.299-0.239-0.449c-0.075-0.165-0.149-0.299-0.209-0.463c-0.209-0.464-0.359-0.942-0.464-1.421
						c-0.044-0.149-0.075-0.284-0.089-0.418c-0.015-0.105-0.015-0.194-0.03-0.284l-0.015-0.15c-0.015-0.12-0.015-0.269-0.015-0.404
						c-0.045-3.23,1.256-6.671,2.199-7.912c5.325-7.015,6.581-8.137,6.596-8.152c1.047-0.763,2.034-1.57,2.977-2.348
						c3.649-2.992,7.104-5.818,14.823-7.03c0.03,0,0.075,0,0.134,0.015c0.135,0.03,0.344,0.06,0.733,0.06
						c0.494,0,1.152-0.06,1.959-0.18C528.382,352.772,535.188,354.403,541.081,357.005z"/>
					<path fill="#6D2B90" d="M534.739,424.298v9.588h-33.624v-43.241c0.927,0.239,1.854,0.359,2.752,0.359
						c0.135,0,0.254,0,0.374-0.015c5.669-0.194,11.173-2.229,16.827-6.222c0.299-0.209,0.568-0.404,0.837-0.598
						c0.464-0.344,0.897-0.688,1.331-1.017h10.77v9.587h-20.462v10.471h19.325v5.519v4.084h-19.325v11.486H534.739z"/>
					<path fill="#FFFFFF" d="M533.168,334.57c-0.015,0-0.045,0-0.075,0l0.015-0.015C533.124,334.555,533.154,334.57,533.168,334.57z
						"/>
					<path fill="#FFFFFF" d="M521.263,383.151h1.974c-0.434,0.329-0.867,0.673-1.331,1.017c-0.269,0.194-0.539,0.389-0.837,0.598
						c-5.654,3.994-11.158,6.028-16.827,6.222c-0.12,0.015-0.239,0.015-0.374,0.015c-0.897,0-1.825-0.12-2.752-0.359v-1.242
						c0.927,0.254,1.854,0.389,2.752,0.389c0.105,0,0.209,0,0.314,0c5.444-0.195,10.739-2.154,16.184-6.013
						c0.284-0.194,0.553-0.389,0.823-0.583c0.015-0.015,0.045-0.03,0.06-0.045H521.263z"/>
					<path d="M503.239,387.758c-0.09,0-0.195-0.015-0.284-0.03c-0.209-0.03-0.434-0.06-0.644-0.12h-0.015
						c-0.105-0.03-0.225-0.06-0.329-0.075c-0.06-0.015-0.12-0.03-0.18-0.045c-0.209-0.06-0.434-0.12-0.643-0.209h-0.015v-0.015
						h-0.015V387.1c0.957,0.344,1.929,0.523,2.872,0.523c0.09,0,0.18,0,0.254,0c4.128-0.135,8.167-1.496,12.34-4.113l0.075-0.075
						h0.03c0.15-0.09,0.299-0.18,0.434-0.284c0.015,0,0.015,0,0.015,0h4.113c-0.015,0.015-0.045,0.03-0.06,0.045
						c-0.27,0.194-0.539,0.389-0.823,0.583c-5.444,3.859-10.739,5.818-16.184,6.013c-0.105,0-0.209,0-0.314,0
						c-0.897,0-1.825-0.135-2.752-0.389v-0.194c0.09,0.03,0.179,0.045,0.269,0.075c0.135,0.03,0.27,0.075,0.404,0.105
						c0.12,0.015,0.239,0.045,0.359,0.06c0.089,0.015,0.179,0.03,0.269,0.045c0.239,0.045,0.494,0.075,0.733,0.09h0.015
						c0.239,0.015,0.463,0.03,0.703,0.03c0.045,0,0.09,0,0.135,0c0.03,0,0.075,0,0.104,0c0.015,0,0.045,0,0.075,0
						c5.758-0.194,11.098-2.453,16.094-5.968h-3.575c-3.919,2.453-8.062,4.008-12.444,4.158
						C503.927,387.817,503.583,387.803,503.239,387.758z"/>
					<path d="M516.701,383.645h3.575c-4.996,3.515-10.335,5.773-16.094,5.968c-0.03,0-0.06,0-0.075,0c-0.03,0-0.075,0-0.104,0
						c-0.045,0-0.09,0-0.135,0c-0.239,0-0.463-0.015-0.703-0.03h-0.015c-0.239-0.015-0.494-0.045-0.733-0.09
						c-0.09-0.015-0.18-0.03-0.269-0.045c-0.12-0.015-0.24-0.045-0.359-0.06c-0.134-0.03-0.269-0.075-0.404-0.105
						c-0.09-0.03-0.179-0.045-0.269-0.075v-1.93c0.015,0,0.015,0,0.015,0h0.015c0.209,0.09,0.434,0.15,0.643,0.209
						c0.06,0.015,0.12,0.03,0.18,0.045c0.104,0.015,0.224,0.045,0.329,0.075h0.015c0.209,0.06,0.434,0.09,0.644,0.12
						c0.089,0.015,0.194,0.03,0.284,0.03c0.344,0.045,0.688,0.06,1.017,0.045C508.639,387.653,512.782,386.097,516.701,383.645z"/>
					<path fill="#FFFFFF" d="M517.12,383.151c-0.135,0.104-0.284,0.194-0.434,0.284h-0.03l-0.075,0.075
						c-4.173,2.618-8.211,3.979-12.34,4.113c-0.075,0-0.165,0-0.254,0c-0.942,0-1.915-0.18-2.872-0.523v-0.015v-1.271
						c0.957,0.389,1.929,0.613,2.872,0.613c0.06,0,0.135,0,0.209-0.015c3.545-0.105,7.03-1.182,10.635-3.261h0.015H517.12z"/>
					<path fill="#6D2B90" d="M501.115,383.151h13.716c-3.605,2.079-7.09,3.156-10.635,3.261c-0.075,0.015-0.149,0.015-0.209,0.015
						c-0.942,0-1.915-0.224-2.872-0.613V383.151z"/>
					<path d="M501.13,387.264v0.015c0,0,0,0-0.015,0v-0.015H501.13z"/>
					<path fill="#FFFFFF" d="M501.115,389.403v1.242c-1.541-0.389-3.066-1.077-4.472-1.989v-0.015v-1.451
						C498.019,388.221,499.56,388.969,501.115,389.403z"/>
					<path d="M497.78,387.728c0.104,0.075,0.209,0.135,0.299,0.18c0.135,0.075,0.254,0.149,0.389,0.209
						c0.135,0.075,0.254,0.149,0.374,0.209c0.12,0.045,0.224,0.104,0.344,0.165c0.09,0.045,0.18,0.089,0.284,0.12
						c0,0.015,0,0.015,0.015,0.015c0,0,0,0,0.015,0c0.015,0.015,0.044,0.015,0.06,0.03h0.015c0.12,0.06,0.224,0.104,0.344,0.149
						c0.135,0.045,0.254,0.104,0.389,0.149c0.12,0.03,0.239,0.075,0.344,0.12c0.03,0.015,0.075,0.03,0.105,0.03
						c0.045,0.015,0.089,0.03,0.12,0.044c0.06,0.015,0.12,0.03,0.165,0.045c0.03,0,0.06,0.015,0.075,0.015v0.194
						c-1.556-0.434-3.096-1.182-4.472-2.213v-0.239c0,0.015,0.015,0,0.015,0v0.015c0.045,0.03,0.09,0.06,0.135,0.09
						c0.09,0.075,0.194,0.149,0.299,0.224c0.12,0.075,0.239,0.165,0.359,0.24C497.555,387.578,497.66,387.653,497.78,387.728z"/>
					<path d="M501.115,387.279v1.93c-0.015,0-0.045-0.015-0.075-0.015c-0.045-0.015-0.105-0.03-0.165-0.045
						c-0.03-0.015-0.075-0.03-0.12-0.044c-0.03,0-0.075-0.015-0.105-0.03c-0.104-0.045-0.224-0.089-0.344-0.12
						c-0.135-0.045-0.254-0.104-0.389-0.149c-0.12-0.045-0.224-0.09-0.344-0.149h-0.015c-0.015-0.015-0.045-0.015-0.06-0.03
						c-0.015,0-0.015,0-0.015,0c-0.015,0-0.015,0-0.015-0.015c-0.104-0.03-0.194-0.075-0.284-0.12
						c-0.12-0.06-0.224-0.12-0.344-0.165c-0.12-0.06-0.239-0.135-0.374-0.209c-0.135-0.06-0.254-0.135-0.389-0.209
						c-0.089-0.045-0.194-0.104-0.299-0.18c-0.12-0.075-0.225-0.149-0.329-0.209c-0.12-0.075-0.239-0.165-0.359-0.24
						c-0.105-0.075-0.209-0.149-0.299-0.224c-0.045-0.03-0.09-0.06-0.135-0.09v-0.015c0,0-0.015,0.015-0.015,0v-0.015v-2.543
						c0,0.015,0,0.015,0.015,0.015c0.03,0.015,0.06,0.045,0.09,0.09h0.015l0.015,0.03h0.015c0.194,0.209,0.404,0.404,0.628,0.583
						c0.075,0.06,0.134,0.12,0.194,0.165c0,0,0,0,0.015,0.015c0.015,0,0.015,0.015,0.015,0.015c0.015,0,0.015,0,0.015,0
						c0.06,0.03,0.104,0.075,0.149,0.12c0.209,0.165,0.419,0.329,0.628,0.464c0.015,0.015,0.045,0.03,0.06,0.045h0.015
						c0,0.015,0.015,0.015,0.015,0.015c0.045,0.03,0.09,0.06,0.135,0.09s0.075,0.06,0.12,0.075c0.03,0.015,0.06,0.03,0.09,0.06
						h0.015c0.194,0.149,0.404,0.254,0.613,0.374c0.015,0.015,0.03,0.015,0.044,0.015v0.015c0.03,0,0.045,0.015,0.075,0.03
						l0.015,0.015h0.015c0.045,0.03,0.09,0.06,0.149,0.075c0.27,0.149,0.554,0.284,0.838,0.389c0.015,0,0.015,0.015,0.03,0.015
						s0.015,0,0.03,0.015h0.015c0.045,0.015,0.075,0.03,0.12,0.045c0.045,0.03,0.075,0.045,0.12,0.045
						C501.01,387.234,501.055,387.264,501.115,387.279z"/>
					<path d="M501.115,387.264v0.015c-0.06-0.015-0.105-0.044-0.165-0.075C501.01,387.234,501.055,387.249,501.115,387.264z"/>
					<path d="M497.81,385.424c-0.045-0.045-0.09-0.09-0.149-0.12c0,0,0,0-0.015,0c0,0,0-0.015-0.015-0.015v-0.015c0,0,0,0-0.015,0
						c-0.06-0.045-0.12-0.105-0.194-0.165c-0.225-0.18-0.434-0.374-0.628-0.583h-0.015l-0.015-0.03h-0.015
						c-0.03-0.045-0.06-0.075-0.09-0.09v-0.015h-0.015v-0.015v-0.239c1.301,1.346,2.872,2.378,4.472,2.946v0.015v0.165
						c-0.06-0.015-0.105-0.03-0.165-0.06c-0.015-0.015-0.045-0.015-0.06-0.03c-0.015,0-0.045,0-0.06-0.015
						c-0.045-0.015-0.075-0.03-0.12-0.045h-0.015c-0.015-0.015-0.015-0.015-0.03-0.015s-0.015-0.015-0.03-0.015
						c-0.284-0.104-0.568-0.239-0.838-0.389c-0.045-0.015-0.09-0.045-0.134-0.075h-0.015h-0.015l-0.015-0.015
						c-0.03-0.015-0.045-0.03-0.075-0.03v-0.015c-0.015,0-0.03,0-0.044-0.015c-0.209-0.12-0.419-0.224-0.613-0.374h-0.015
						c-0.03-0.03-0.06-0.045-0.09-0.06c-0.03-0.03-0.075-0.045-0.104-0.075h-0.015c-0.045-0.03-0.09-0.06-0.135-0.09
						c0,0-0.015,0-0.015-0.015h-0.015c-0.015-0.015-0.03-0.03-0.045-0.045h-0.015C498.229,385.753,498.019,385.589,497.81,385.424z"
						/>
					<path d="M500.951,387.204c-0.045,0-0.075-0.015-0.12-0.045c0.015,0.015,0.045,0.015,0.06,0.015
						C500.906,387.189,500.936,387.189,500.951,387.204z"/>
					<path d="M499.665,386.621c0.044,0.03,0.089,0.06,0.134,0.075c-0.06-0.015-0.104-0.045-0.149-0.075H499.665z"/>
					<polygon points="499.544,447.931 499.544,462.738 496.583,462.738 496.583,456.247 490.645,456.247 490.645,462.738 
						487.668,462.738 487.668,447.931 490.645,447.931 490.645,453.914 496.583,453.914 496.583,447.931 					"/>
					<path d="M498.782,386.112c-0.045-0.015-0.075-0.045-0.12-0.075h0.015C498.707,386.067,498.752,386.083,498.782,386.112z"/>
					<path fill="#FFFFFF" d="M498.527,385.948c0.045,0.03,0.09,0.06,0.135,0.09C498.617,386.008,498.572,385.978,498.527,385.948z"
						/>
					<path d="M498.453,385.888c0.015,0.015,0.03,0.03,0.045,0.045c-0.015-0.015-0.045-0.03-0.06-0.045H498.453z"/>
					<path d="M497.63,385.275v0.015c-0.015-0.015-0.015-0.015-0.015-0.015C497.63,385.275,497.63,385.275,497.63,385.275z"/>
					<path d="M496.658,384.392v0.015c-0.015,0-0.015,0-0.015-0.015H496.658z"/>
					<path fill="#6D2B90" d="M496.643,388.655v45.23h-12.16l0.194-38.963h-0.135l-11.891,38.963h-11.442l-11.353-38.963h-0.134
						l0.269,38.963h-12.175v-50.735h19.594l9.887,33.729h0.135l10.365-33.729h13.716c0.09,0.165,0.194,0.359,0.329,0.583
						c0.134,0.239,0.284,0.463,0.449,0.688c1.167,1.675,2.662,3.126,4.353,4.218V388.655z"/>
					<path fill="#FFFFFF" d="M496.643,387.189v1.451c-1.69-1.092-3.186-2.543-4.353-4.218c-0.165-0.225-0.314-0.449-0.449-0.688
						c-0.135-0.225-0.239-0.419-0.329-0.583h1.376h0.015c0.104,0.194,0.224,0.389,0.374,0.583
						C494.205,385.08,495.356,386.247,496.643,387.189z"/>
					<path d="M496.643,386.95v0.239c-1.287-0.942-2.438-2.109-3.366-3.455c-0.149-0.195-0.269-0.389-0.374-0.583h2.887
						c0,0.015,0.015,0.03,0.03,0.045c0.254,0.329,0.523,0.643,0.823,0.927c-0.015,0.015,0,0.015,0,0.015v0.239
						c-0.045-0.03-0.09-0.075-0.135-0.12c-0.194-0.209-0.389-0.419-0.568-0.628l-2.513,0.015c0.015,0.03,0.03,0.045,0.06,0.075
						c0,0.015,0.015,0.03,0.03,0.045c0.06,0.075,0.104,0.165,0.179,0.239c0.015,0.03,0.03,0.045,0.045,0.075h0.015
						c0.03,0.06,0.089,0.135,0.134,0.194c0.06,0.075,0.12,0.15,0.18,0.225s0.12,0.149,0.18,0.209c0.015,0.015,0.015,0.03,0.015,0.03
						h0.015c0,0.015,0.015,0.03,0.015,0.03h0.015c0.015,0.045,0.045,0.075,0.075,0.105c0.015,0.015,0.015,0.015,0.015,0.015
						c0.075,0.09,0.149,0.165,0.224,0.239c0.06,0.06,0.12,0.12,0.165,0.18c0.045,0.06,0.105,0.104,0.165,0.165
						c0.075,0.09,0.165,0.179,0.254,0.254c0.104,0.104,0.209,0.209,0.329,0.314c0.09,0.075,0.18,0.165,0.269,0.239
						c0.045,0.045,0.105,0.075,0.15,0.12s0.104,0.09,0.149,0.135c0.015,0,0.03,0.015,0.045,0.03
						c0.165,0.135,0.329,0.269,0.494,0.374V386.95z"/>
					<path d="M496.643,384.392v2.543c-0.165-0.105-0.329-0.239-0.494-0.374c-0.015-0.015-0.03-0.03-0.045-0.03
						c-0.045-0.045-0.104-0.09-0.149-0.135s-0.105-0.075-0.15-0.12c-0.089-0.075-0.179-0.165-0.269-0.239
						c-0.12-0.104-0.225-0.209-0.329-0.314c-0.09-0.075-0.18-0.165-0.254-0.254c-0.06-0.06-0.12-0.105-0.165-0.165
						c-0.045-0.06-0.104-0.12-0.165-0.18c-0.075-0.075-0.149-0.149-0.224-0.239v-0.015h-0.015c-0.03-0.03-0.06-0.06-0.075-0.105
						h-0.015c0,0-0.015-0.015-0.015-0.03h-0.015c0,0,0-0.015-0.015-0.03c-0.06-0.06-0.12-0.135-0.18-0.209s-0.12-0.15-0.18-0.225
						c-0.045-0.06-0.104-0.134-0.134-0.194h-0.015c-0.015-0.03-0.03-0.045-0.045-0.075c-0.075-0.075-0.12-0.165-0.179-0.239
						c-0.015-0.015-0.03-0.03-0.03-0.045c-0.03-0.03-0.045-0.045-0.06-0.075l2.513-0.015c0.18,0.209,0.374,0.419,0.568,0.628
						C496.553,384.303,496.598,384.347,496.643,384.392z"/>
					<path fill="#FFFFFF" d="M496.643,384.377v0.015c-0.045-0.045-0.09-0.089-0.135-0.134
						C496.553,384.303,496.598,384.347,496.643,384.377z"/>
					<path fill="#FFFFFF" d="M496.643,383.151v0.972c-0.299-0.284-0.568-0.598-0.823-0.927c-0.015-0.015-0.03-0.03-0.03-0.045
						H496.643z"/>
					<path d="M494.399,384.871v0.015c0,0,0,0-0.015-0.015H494.399z"/>
					<polygon points="451.397,447.931 451.397,450.264 447.149,450.264 447.149,462.738 444.173,462.738 444.173,450.264 
						439.94,450.264 439.94,447.931 					"/>
				</g>
				<g>
					<polyline fill="none" stroke="#000000" stroke-width="1.314" stroke-miterlimit="3.8637" points="437.008,466.478 
						444.173,466.478 496.583,466.478 537.372,466.478 596.976,466.478 635.955,466.478 686.959,466.478 726.416,466.478 
						776.149,466.478 786.903,466.478 					"/>
				</g>
			</g>
		</g>
	</g>
</g>
</svg>
