<?xml version="1.0" encoding="utf-8"?>
<!-- Generator: Adobe Illustrator 16.0.4, SVG Export Plug-In . SVG Version: 6.00 Build 0)  -->
<!DOCTYPE svg PUBLIC "-//W3C//DTD SVG 1.1//EN" "http://www.w3.org/Graphics/SVG/1.1/DTD/svg11.dtd">
<svg version="1.1" id="Layer_1" xmlns="http://www.w3.org/2000/svg" xmlns:xlink="http://www.w3.org/1999/xlink" x="0px" y="0px"
	 width="100%" height="100%" viewBox="0 2.574 800 300" enable-background="new 0 2.574 800 300" xml:space="preserve" preserveAspectRatio="xMinYMin slice">
<path fill="#E7E7E7" d="M720.441,2.68H552.471c-7.271,24.302-20.658,47.18-40.102,66.287c-62.1,61.057-162.697,61.111-224.803,0.06
	c-19.49-19.169-32.881-42.049-40.101-66.402L79.544,2.574c-43.765,0-79.542,35.156-79.542,78.196v64.455H0v14.699l0.002,64.35
	c0,43.029,35.761,78.195,79.555,78.195H247.53c7.271-24.303,20.658-47.181,40.101-66.286c62.098-61.06,162.699-61.114,224.803-0.06
	c19.494,19.168,32.883,42.049,40.102,66.4l167.922,0.051c43.766,0,79.543-35.156,79.543-78.195v-64.456v-14.699l-0.002-64.351
	C799.998,37.845,764.234,2.68,720.441,2.68z"/>
</svg>
