<?xml version="1.0" encoding="utf-8"?>
<!-- Generator: Adobe Illustrator 16.0.4, SVG Export Plug-In . SVG Version: 6.00 Build 0)  -->
<!DOCTYPE svg PUBLIC "-//W3C//DTD SVG 1.1//EN" "http://www.w3.org/Graphics/SVG/1.1/DTD/svg11.dtd">
<svg version="1.1" id="Layer_1" xmlns="http://www.w3.org/2000/svg" xmlns:xlink="http://www.w3.org/1999/xlink" x="0px" y="0px"
	 width="100%" height="100%" viewBox="0 -200 1224 1440" enable-background="new 0 -200 1224 1440" xml:space="preserve">
<path fill="#DDDDDD" d="M1224,22l-0.005-100.145c0-66.965-54.715-121.69-121.718-121.69h-257
	c-11.124,37.819-31.604,73.423-61.352,103.159C688.913-1.654,534.998-1.57,439.979-96.582
	c-29.822-29.832-50.31-65.438-61.356-103.339L121.702-200c-66.96,0-121.7,54.71-121.7,121.692V22H0v996l0,0l0.002,100.145
	c0,66.966,54.715,121.692,121.718,121.692h257c11.124-37.821,31.606-73.426,61.354-103.159
	c95.012-95.022,248.929-95.106,343.951-0.094c29.824,29.832,50.31,65.438,61.354,103.34l256.92,0.076
	c66.962,0,121.699-54.71,121.699-121.692V1018H1224V22L1224,22z"/>
</svg>
