<?xml version="1.0" encoding="utf-8"?>
<!-- Generator: Adobe Illustrator 16.0.4, SVG Export Plug-In . SVG Version: 6.00 Build 0)  -->
<!DOCTYPE svg PUBLIC "-//W3C//DTD SVG 1.1//EN" "http://www.w3.org/Graphics/SVG/1.1/DTD/svg11.dtd">
<svg version="1.1" id="Layer_1" xmlns="http://www.w3.org/2000/svg" xmlns:xlink="http://www.w3.org/1999/xlink" x="0px" y="0px"
	 width="512px" height="512px" viewBox="0 0 512 512" enable-background="new 0 0 512 512" xml:space="preserve">
<path fill="#6D2B90" d="M305.143,505.956l45.438-33.015c-2.877-8.132-3.867-17.009-2.416-26.155
	c4.599-28.977,31.833-48.765,60.829-44.153c9.106,1.425,17.315,5.074,24.125,10.354l45.426-33.029
	c11.845-8.632,14.491-25.28,5.896-37.151L244.022,11.945c-8.602-11.844-25.315-14.497-37.159-5.884l-45.451,33.016
	c2.904,8.118,3.854,17.047,2.416,26.123c-4.592,29.021-31.796,48.804-60.81,44.199c-9.114-1.426-17.311-5.113-24.132-10.393
	l-45.438,33.003c-11.832,8.608-14.491,25.308-5.884,37.151L267.99,500.074C276.609,511.893,293.312,514.546,305.143,505.956z"/>
</svg>
